<svg width="80" height="47" viewBox="0 0 80 47" fill="none" xmlns="http://www.w3.org/2000/svg">
<g clip-path="url(#clip0_20683_3620)">
<path d="M26.4541 5.56152H8.64258V43.4083H26.4541V5.56152Z" fill="url(#paint0_radial_20683_3620)"/>
<path d="M27.0959 6.82324H7V14.7862H27.0959V6.82324Z" fill="url(#paint1_radial_20683_3620)"/>
<path fill-rule="evenodd" clip-rule="evenodd" d="M27.0959 6.82324H7V14.7862H27.0959V6.82324ZM7.1994 7.02264H26.9009V14.5911H7.1994V7.02264Z" fill="url(#paint2_radial_20683_3620)"/>
<path fill-rule="evenodd" clip-rule="evenodd" d="M23.1689 10.1137C22.7874 10.1137 22.4753 10.4258 22.4753 10.8073C22.4753 11.1887 22.7874 11.5008 23.1689 11.5008C23.5503 11.5008 23.8624 11.1887 23.8624 10.8073C23.8624 10.4258 23.5503 10.1137 23.1689 10.1137ZM19.9828 10.1137C19.6014 10.1137 19.2893 10.4258 19.2893 10.8073C19.2893 11.1887 19.6014 11.5008 19.9828 11.5008C20.3643 11.5008 20.6764 11.1887 20.6764 10.8073C20.6764 10.4258 20.3643 10.1137 19.9828 10.1137ZM16.7968 10.1137C16.4153 10.1137 16.1032 10.4258 16.1032 10.8073C16.1032 11.1887 16.4153 11.5008 16.7968 11.5008C17.1782 11.5008 17.4903 11.1887 17.4903 10.8073C17.4903 10.4258 17.1782 10.1137 16.7968 10.1137ZM13.1946 9.3291H10.2383V12.2854H13.1946V9.3291Z" fill="url(#paint3_radial_20683_3620)"/>
<path fill-rule="evenodd" clip-rule="evenodd" d="M23.1691 9.9965C22.9481 9.9965 22.7443 10.0875 22.5969 10.2349C22.4496 10.3823 22.3585 10.586 22.3585 10.8071C22.3585 11.0282 22.4496 11.2319 22.5969 11.3793C22.7443 11.5267 22.9481 11.6177 23.1691 11.6177C23.3902 11.6177 23.5939 11.5267 23.7413 11.3793C23.8887 11.2319 23.9797 11.0282 23.9797 10.8071C23.9797 10.586 23.8887 10.3823 23.7413 10.2349C23.5939 10.0875 23.3902 9.9965 23.1691 9.9965ZM23.1691 10.2262C23.3295 10.2262 23.4726 10.2913 23.5766 10.3953C23.6806 10.4993 23.7457 10.6424 23.7457 10.8028C23.7457 10.9632 23.6806 11.1062 23.5766 11.2102C23.4726 11.3143 23.3295 11.3793 23.1691 11.3793C23.0087 11.3793 22.8657 11.3143 22.7617 11.2102C22.6576 11.1062 22.5926 10.9632 22.5926 10.8028C22.5926 10.6424 22.6576 10.4993 22.7617 10.3953C22.8657 10.2913 23.0087 10.2262 23.1691 10.2262ZM19.9831 9.9965C19.762 9.9965 19.5583 10.0875 19.4109 10.2349C19.2635 10.3823 19.1725 10.586 19.1725 10.8071C19.1725 11.0282 19.2635 11.2319 19.4109 11.3793C19.5583 11.5267 19.762 11.6177 19.9831 11.6177C20.2042 11.6177 20.4079 11.5267 20.5553 11.3793C20.7027 11.2319 20.7937 11.0282 20.7937 10.8071C20.7937 10.586 20.7027 10.3823 20.5553 10.2349C20.4079 10.0875 20.2042 9.9965 19.9831 9.9965ZM19.9831 10.2262C20.1435 10.2262 20.2865 10.2913 20.3906 10.3953C20.4946 10.4993 20.5596 10.6424 20.5596 10.8028C20.5596 10.9632 20.4946 11.1062 20.3906 11.2102C20.2865 11.3143 20.1435 11.3793 19.9831 11.3793C19.8227 11.3793 19.6797 11.3143 19.5756 11.2102C19.4716 11.1062 19.4066 10.9632 19.4066 10.8028C19.4066 10.6424 19.4716 10.4993 19.5756 10.3953C19.6797 10.2913 19.8227 10.2262 19.9831 10.2262ZM16.797 9.9965C16.576 9.9965 16.3722 10.0875 16.2249 10.2349C16.0775 10.3823 15.9864 10.586 15.9864 10.8071C15.9864 11.0282 16.0775 11.2319 16.2249 11.3793C16.3722 11.5267 16.576 11.6177 16.797 11.6177C17.0181 11.6177 17.2219 11.5267 17.3692 11.3793C17.5166 11.2319 17.6076 11.0282 17.6076 10.8071C17.6076 10.586 17.5166 10.3823 17.3692 10.2349C17.2219 10.0875 17.0181 9.9965 16.797 9.9965ZM16.797 10.2262C16.9574 10.2262 17.1005 10.2913 17.2045 10.3953C17.3085 10.4993 17.3736 10.6424 17.3736 10.8028C17.3736 10.9632 17.3085 11.1062 17.2045 11.2102C17.1005 11.3143 16.9574 11.3793 16.797 11.3793C16.6367 11.3793 16.4936 11.3143 16.3896 11.2102C16.2855 11.1062 16.2205 10.9632 16.2205 10.8028C16.2205 10.6424 16.2855 10.4993 16.3896 10.3953C16.4936 10.2913 16.6367 10.2262 16.797 10.2262ZM13.1905 9.21191H10.2342L10.1172 9.32895V12.2853L10.2342 12.4023H13.1905L13.3076 12.2853V9.32895L13.1905 9.21191ZM10.3513 9.44166H13.0735V12.1639H10.3513V9.44166Z" fill="url(#paint4_radial_20683_3620)"/>
<path d="M27.0959 15.9434H7V23.9063H27.0959V15.9434Z" fill="url(#paint5_radial_20683_3620)"/>
<path fill-rule="evenodd" clip-rule="evenodd" d="M27.0959 15.9434H7V23.9063H27.0959V15.9434ZM7.1994 16.1428H26.9009V23.7112H7.1994V16.1428Z" fill="url(#paint6_radial_20683_3620)"/>
<path fill-rule="evenodd" clip-rule="evenodd" d="M23.1689 19.2338C22.7874 19.2338 22.4753 19.5459 22.4753 19.9274C22.4753 20.3088 22.7874 20.6209 23.1689 20.6209C23.5503 20.6209 23.8624 20.3088 23.8624 19.9274C23.8624 19.5459 23.5503 19.2338 23.1689 19.2338ZM19.9828 19.2338C19.6014 19.2338 19.2893 19.5459 19.2893 19.9274C19.2893 20.3088 19.6014 20.6209 19.9828 20.6209C20.3643 20.6209 20.6764 20.3088 20.6764 19.9274C20.6764 19.5459 20.3643 19.2338 19.9828 19.2338ZM16.7968 19.2338C16.4153 19.2338 16.1032 19.5459 16.1032 19.9274C16.1032 20.3088 16.4153 20.6209 16.7968 20.6209C17.1782 20.6209 17.4903 20.3088 17.4903 19.9274C17.4903 19.5459 17.1782 19.2338 16.7968 19.2338ZM13.1946 18.4492H10.2383V21.4055H13.1946V18.4492Z" fill="url(#paint7_radial_20683_3620)"/>
<path fill-rule="evenodd" clip-rule="evenodd" d="M23.1691 19.1166C22.9481 19.1166 22.7443 19.2077 22.5969 19.355C22.4496 19.5024 22.3585 19.7061 22.3585 19.9272C22.3585 20.1483 22.4496 20.352 22.5969 20.4994C22.7443 20.6468 22.9481 20.7378 23.1691 20.7378C23.3902 20.7378 23.5939 20.6468 23.7413 20.4994C23.8887 20.352 23.9797 20.1483 23.9797 19.9272C23.9797 19.7061 23.8887 19.5024 23.7413 19.355C23.5939 19.2077 23.3902 19.1166 23.1691 19.1166ZM23.1691 19.3507C23.3295 19.3507 23.4726 19.4157 23.5766 19.5198C23.6806 19.6238 23.7457 19.7668 23.7457 19.9272C23.7457 20.0876 23.6806 20.2307 23.5766 20.3347C23.4726 20.4387 23.3295 20.5037 23.1691 20.5037C23.0087 20.5037 22.8657 20.4387 22.7617 20.3347C22.6576 20.2307 22.5926 20.0876 22.5926 19.9272C22.5926 19.7668 22.6576 19.6238 22.7617 19.5198C22.8657 19.4157 23.0087 19.3507 23.1691 19.3507ZM19.9831 19.1166C19.762 19.1166 19.5583 19.2077 19.4109 19.355C19.2635 19.5024 19.1725 19.7061 19.1725 19.9272C19.1725 20.1483 19.2635 20.352 19.4109 20.4994C19.5583 20.6468 19.762 20.7378 19.9831 20.7378C20.2042 20.7378 20.4079 20.6468 20.5553 20.4994C20.7027 20.352 20.7937 20.1483 20.7937 19.9272C20.7937 19.7061 20.7027 19.5024 20.5553 19.355C20.4079 19.2077 20.2042 19.1166 19.9831 19.1166ZM19.9831 19.3507C20.1435 19.3507 20.2865 19.4157 20.3906 19.5198C20.4946 19.6238 20.5596 19.7668 20.5596 19.9272C20.5596 20.0876 20.4946 20.2307 20.3906 20.3347C20.2865 20.4387 20.1435 20.5037 19.9831 20.5037C19.8227 20.5037 19.6797 20.4387 19.5756 20.3347C19.4716 20.2307 19.4066 20.0876 19.4066 19.9272C19.4066 19.7668 19.4716 19.6238 19.5756 19.5198C19.6797 19.4157 19.8227 19.3507 19.9831 19.3507ZM16.797 19.1166C16.576 19.1166 16.3722 19.2077 16.2249 19.355C16.0775 19.5024 15.9864 19.7061 15.9864 19.9272C15.9864 20.1483 16.0775 20.352 16.2249 20.4994C16.3722 20.6468 16.576 20.7378 16.797 20.7378C17.0181 20.7378 17.2219 20.6468 17.3692 20.4994C17.5166 20.352 17.6076 20.1483 17.6076 19.9272C17.6076 19.7061 17.5166 19.5024 17.3692 19.355C17.2219 19.2077 17.0181 19.1166 16.797 19.1166ZM16.797 19.3507C16.9574 19.3507 17.1005 19.4157 17.2045 19.5198C17.3085 19.6238 17.3736 19.7668 17.3736 19.9272C17.3736 20.0876 17.3085 20.2307 17.2045 20.3347C17.1005 20.4387 16.9574 20.5037 16.797 20.5037C16.6367 20.5037 16.4936 20.4387 16.3896 20.3347C16.2855 20.2307 16.2205 20.0876 16.2205 19.9272C16.2205 19.7668 16.2855 19.6238 16.3896 19.5198C16.4936 19.4157 16.6367 19.3507 16.797 19.3507ZM13.1905 18.332H10.2342L10.1172 18.4491V21.4054L10.2342 21.5224H13.1905L13.3076 21.4054V18.4491L13.1905 18.332ZM10.3513 18.5661H13.0735V21.2883H10.3513V18.5661Z" fill="url(#paint8_radial_20683_3620)"/>
<path d="M27.0959 25.0645H7V33.0274H27.0959V25.0645Z" fill="url(#paint9_radial_20683_3620)"/>
<path fill-rule="evenodd" clip-rule="evenodd" d="M27.0959 25.0645H7V33.0274H27.0959V25.0645ZM7.1994 25.2639H26.9009V32.8323H7.1994V25.2639Z" fill="url(#paint10_radial_20683_3620)"/>
<path fill-rule="evenodd" clip-rule="evenodd" d="M23.1689 28.3539C22.7874 28.3539 22.4753 28.666 22.4753 29.0475C22.4753 29.4289 22.7874 29.741 23.1689 29.741C23.5503 29.741 23.8624 29.4289 23.8624 29.0475C23.8624 28.666 23.5503 28.3539 23.1689 28.3539ZM19.9828 28.3539C19.6014 28.3539 19.2893 28.666 19.2893 29.0475C19.2893 29.4289 19.6014 29.741 19.9828 29.741C20.3643 29.741 20.6764 29.4289 20.6764 29.0475C20.6764 28.666 20.3643 28.3539 19.9828 28.3539ZM16.7968 28.3539C16.4153 28.3539 16.1032 28.666 16.1032 29.0475C16.1032 29.4289 16.4153 29.741 16.7968 29.741C17.1782 29.741 17.4903 29.4289 17.4903 29.0475C17.4903 28.666 17.1782 28.3539 16.7968 28.3539ZM13.1946 27.5693H10.2383V30.5256H13.1946V27.5693Z" fill="url(#paint11_radial_20683_3620)"/>
<path fill-rule="evenodd" clip-rule="evenodd" d="M23.1691 28.2367C22.9481 28.2367 22.7443 28.3278 22.5969 28.4752C22.4496 28.6225 22.3585 28.8263 22.3585 29.0473C22.3585 29.2684 22.4496 29.4721 22.5969 29.6195C22.7443 29.7669 22.9481 29.8579 23.1691 29.8579C23.3902 29.8579 23.5939 29.7669 23.7413 29.6195C23.8887 29.4721 23.9797 29.2684 23.9797 29.0473C23.9797 28.8263 23.8887 28.6225 23.7413 28.4752C23.5939 28.3278 23.3902 28.2367 23.1691 28.2367ZM23.1691 28.4708C23.3295 28.4708 23.4726 28.5358 23.5766 28.6399C23.6806 28.7439 23.7457 28.887 23.7457 29.0473C23.7457 29.2077 23.6806 29.3508 23.5766 29.4548C23.4726 29.5588 23.3295 29.6239 23.1691 29.6239C23.0087 29.6239 22.8657 29.5588 22.7617 29.4548C22.6576 29.3508 22.5926 29.2077 22.5926 29.0473C22.5926 28.887 22.6576 28.7439 22.7617 28.6399C22.8657 28.5358 23.0087 28.4708 23.1691 28.4708ZM19.9831 28.2367C19.762 28.2367 19.5583 28.3278 19.4109 28.4752C19.2635 28.6225 19.1725 28.8263 19.1725 29.0473C19.1725 29.2684 19.2635 29.4721 19.4109 29.6195C19.5583 29.7669 19.762 29.8579 19.9831 29.8579C20.2042 29.8579 20.4079 29.7669 20.5553 29.6195C20.7027 29.4721 20.7937 29.2684 20.7937 29.0473C20.7937 28.8263 20.7027 28.6225 20.5553 28.4752C20.4079 28.3278 20.2042 28.2367 19.9831 28.2367ZM19.9831 28.4708C20.1435 28.4708 20.2865 28.5358 20.3906 28.6399C20.4946 28.7439 20.5596 28.887 20.5596 29.0473C20.5596 29.2077 20.4946 29.3508 20.3906 29.4548C20.2865 29.5588 20.1435 29.6239 19.9831 29.6239C19.8227 29.6239 19.6797 29.5588 19.5756 29.4548C19.4716 29.3508 19.4066 29.2077 19.4066 29.0473C19.4066 28.887 19.4716 28.7439 19.5756 28.6399C19.6797 28.5358 19.8227 28.4708 19.9831 28.4708ZM16.797 28.2367C16.576 28.2367 16.3722 28.3278 16.2249 28.4752C16.0775 28.6225 15.9864 28.8263 15.9864 29.0473C15.9864 29.2684 16.0775 29.4721 16.2249 29.6195C16.3722 29.7669 16.576 29.8579 16.797 29.8579C17.0181 29.8579 17.2219 29.7669 17.3692 29.6195C17.5166 29.4721 17.6076 29.2684 17.6076 29.0473C17.6076 28.8263 17.5166 28.6225 17.3692 28.4752C17.2219 28.3278 17.0181 28.2367 16.797 28.2367ZM16.797 28.4708C16.9574 28.4708 17.1005 28.5358 17.2045 28.6399C17.3085 28.7439 17.3736 28.887 17.3736 29.0473C17.3736 29.2077 17.3085 29.3508 17.2045 29.4548C17.1005 29.5588 16.9574 29.6239 16.797 29.6239C16.6367 29.6239 16.4936 29.5588 16.3896 29.4548C16.2855 29.3508 16.2205 29.2077 16.2205 29.0473C16.2205 28.887 16.2855 28.7439 16.3896 28.6399C16.4936 28.5358 16.6367 28.4708 16.797 28.4708ZM13.1905 27.4521H10.2342L10.1172 27.5692V30.5255L10.2342 30.6425H13.1905L13.3076 30.5255V27.5692L13.1905 27.4521ZM10.3513 27.6862H13.0735V30.4085H10.3513V27.6862Z" fill="url(#paint12_radial_20683_3620)"/>
<path d="M27.0959 34.1885H7V42.1514H27.0959V34.1885Z" fill="url(#paint13_radial_20683_3620)"/>
<path fill-rule="evenodd" clip-rule="evenodd" d="M27.0959 34.1885H7V42.1514H27.0959V34.1885ZM7.1994 34.3835H26.9009V41.952H7.1994V34.3835Z" fill="url(#paint14_radial_20683_3620)"/>
<path fill-rule="evenodd" clip-rule="evenodd" d="M23.1689 37.474C22.7874 37.474 22.4753 37.7861 22.4753 38.1676C22.4753 38.5491 22.7874 38.8612 23.1689 38.8612C23.5503 38.8612 23.8624 38.5491 23.8624 38.1676C23.8624 37.7861 23.5503 37.474 23.1689 37.474ZM19.9828 37.474C19.6014 37.474 19.2893 37.7861 19.2893 38.1676C19.2893 38.5491 19.6014 38.8612 19.9828 38.8612C20.3643 38.8612 20.6764 38.5491 20.6764 38.1676C20.6764 37.7861 20.3643 37.474 19.9828 37.474ZM16.7968 37.474C16.4153 37.474 16.1032 37.7861 16.1032 38.1676C16.1032 38.5491 16.4153 38.8612 16.7968 38.8612C17.1782 38.8612 17.4903 38.5491 17.4903 38.1676C17.4903 37.7861 17.1782 37.474 16.7968 37.474ZM13.1946 36.6895H10.2383V39.6458H13.1946V36.6895Z" fill="url(#paint15_radial_20683_3620)"/>
<path fill-rule="evenodd" clip-rule="evenodd" d="M23.1691 37.3569C22.9481 37.3569 22.7443 37.4479 22.5969 37.5953C22.4496 37.7426 22.3585 37.9464 22.3585 38.1675C22.3585 38.3885 22.4496 38.5923 22.5969 38.7396C22.7443 38.887 22.9481 38.9781 23.1691 38.9781C23.3902 38.9781 23.5939 38.887 23.7413 38.7396C23.8887 38.5923 23.9797 38.3885 23.9797 38.1675C23.9797 37.9464 23.8887 37.7426 23.7413 37.5953C23.5939 37.4479 23.3902 37.3569 23.1691 37.3569ZM23.1691 37.5909C23.3295 37.5909 23.4726 37.656 23.5766 37.76C23.6806 37.864 23.7457 38.0071 23.7457 38.1675C23.7457 38.3278 23.6806 38.4709 23.5766 38.5749C23.4726 38.679 23.3295 38.744 23.1691 38.744C23.0087 38.744 22.8657 38.679 22.7617 38.5749C22.6576 38.4709 22.5926 38.3278 22.5926 38.1675C22.5926 38.0071 22.6576 37.864 22.7617 37.76C22.8657 37.656 23.0087 37.5909 23.1691 37.5909ZM19.9831 37.3569C19.762 37.3569 19.5583 37.4479 19.4109 37.5953C19.2635 37.7426 19.1725 37.9464 19.1725 38.1675C19.1725 38.3885 19.2635 38.5923 19.4109 38.7396C19.5583 38.887 19.762 38.9781 19.9831 38.9781C20.2042 38.9781 20.4079 38.887 20.5553 38.7396C20.7027 38.5923 20.7937 38.3885 20.7937 38.1675C20.7937 37.9464 20.7027 37.7426 20.5553 37.5953C20.4079 37.4479 20.2042 37.3569 19.9831 37.3569ZM19.9831 37.5909C20.1435 37.5909 20.2865 37.656 20.3906 37.76C20.4946 37.864 20.5596 38.0071 20.5596 38.1675C20.5596 38.3278 20.4946 38.4709 20.3906 38.5749C20.2865 38.679 20.1435 38.744 19.9831 38.744C19.8227 38.744 19.6797 38.679 19.5756 38.5749C19.4716 38.4709 19.4066 38.3278 19.4066 38.1675C19.4066 38.0071 19.4716 37.864 19.5756 37.76C19.6797 37.656 19.8227 37.5909 19.9831 37.5909ZM16.797 37.3569C16.576 37.3569 16.3722 37.4479 16.2249 37.5953C16.0775 37.7426 15.9864 37.9464 15.9864 38.1675C15.9864 38.3885 16.0775 38.5923 16.2249 38.7396C16.3722 38.887 16.576 38.9781 16.797 38.9781C17.0181 38.9781 17.2219 38.887 17.3692 38.7396C17.5166 38.5923 17.6076 38.3885 17.6076 38.1675C17.6076 37.9464 17.5166 37.7426 17.3692 37.5953C17.2219 37.4479 17.0181 37.3569 16.797 37.3569ZM16.797 37.5909C16.9574 37.5909 17.1005 37.656 17.2045 37.76C17.3085 37.864 17.3736 38.0071 17.3736 38.1675C17.3736 38.3278 17.3085 38.4709 17.2045 38.5749C17.1005 38.679 16.9574 38.744 16.797 38.744C16.6367 38.744 16.4936 38.679 16.3896 38.5749C16.2855 38.4709 16.2205 38.3278 16.2205 38.1675C16.2205 38.0071 16.2855 37.864 16.3896 37.76C16.4936 37.656 16.6367 37.5909 16.797 37.5909ZM13.1905 36.5723H10.2342L10.1172 36.6893V39.6456L10.2342 39.7626H13.1905L13.3076 39.6456V36.6893L13.1905 36.5723ZM10.3513 36.8063H13.0735V39.5286H10.3513V36.8063Z" fill="url(#paint16_radial_20683_3620)"/>
<path fill-rule="evenodd" clip-rule="evenodd" d="M26.0527 3.12988H67.9828C68.4726 3.12988 68.8714 3.84078 68.8714 4.7164V33.3431C68.8714 34.2187 68.4726 34.9296 67.9828 34.9296H26.0527C25.5629 34.9296 25.1641 34.2187 25.1641 33.3431V4.7164C25.1641 3.84078 25.5629 3.12988 26.0527 3.12988Z" fill="url(#paint17_radial_20683_3620)"/>
<path fill-rule="evenodd" clip-rule="evenodd" d="M26.7493 3H67.2836C67.7561 3 68.1853 3.19506 68.493 3.50283C68.8051 3.81493 68.9959 4.24407 68.9959 4.71223V33.339C68.9959 33.8114 68.8008 34.2406 68.493 34.5483C68.1853 34.8561 67.7518 35.0512 67.2836 35.0512H26.7493C26.2768 35.0512 25.8477 34.8561 25.5399 34.5483C25.2278 34.2362 25.0371 33.8071 25.0371 33.339V4.71656C25.0371 4.24407 25.2322 3.81493 25.5399 3.50717C25.852 3.19506 26.2812 3.00433 26.7493 3.00433V3ZM67.288 3.26009H26.7493C26.3505 3.26009 25.9864 3.42481 25.722 3.68923C25.4576 3.95365 25.2929 4.31777 25.2929 4.71656V33.3433C25.2929 33.7421 25.4576 34.1062 25.722 34.3706C25.9864 34.635 26.3505 34.7998 26.7493 34.7998H67.2836C67.6824 34.7998 68.0509 34.635 68.311 34.3706C68.5754 34.1062 68.7401 33.7421 68.7401 33.3433V4.71656C68.7401 4.31777 68.5754 3.95365 68.311 3.68923C68.0466 3.42481 67.6824 3.26009 67.2836 3.26009H67.288Z" fill="url(#paint18_radial_20683_3620)"/>
<path d="M67.5399 4.76855H26.4941V31.6397H67.5399V4.76855Z" fill="url(#paint19_radial_20683_3620)"/>
<path fill-rule="evenodd" clip-rule="evenodd" d="M26.4941 4.76855H67.5399V31.6397H26.4941V4.76855ZM67.1455 5.16302H26.8929V31.2409H67.1455V5.16302Z" fill="url(#paint20_radial_20683_3620)"/>
<path d="M49.9926 35.0557H44.041V41.2284H49.9926V35.0557Z" fill="url(#paint21_radial_20683_3620)"/>
<path fill-rule="evenodd" clip-rule="evenodd" d="M39.0175 41.2285H55.0258C55.5156 41.2285 55.9144 41.6273 55.9144 42.1171V43.0058H38.1289V42.1171C38.1289 41.6273 38.5277 41.2285 39.0175 41.2285Z" fill="url(#paint22_radial_20683_3620)"/>
<path fill-rule="evenodd" clip-rule="evenodd" d="M39.0174 40.9727H55.0257C55.3421 40.9727 55.6282 41.1027 55.8363 41.3108C56.0443 41.5188 56.1744 41.8049 56.1744 42.1214V43.2701H37.873V42.1214C37.873 41.8049 38.0031 41.5188 38.2112 41.3108C38.4192 41.1027 38.7053 40.9727 39.0218 40.9727H39.0174ZM39.0174 41.2284H55.0257C55.5155 41.2284 55.9143 41.6272 55.9143 42.117V43.0057H38.1288V42.117C38.1288 41.6272 38.5276 41.2284 39.0174 41.2284Z" fill="url(#paint23_radial_20683_3620)"/>
<g style="mix-blend-mode:soft-light">
<path fill-rule="evenodd" clip-rule="evenodd" d="M26.7493 3H67.2836C67.7561 3 68.1853 3.19506 68.493 3.50283C68.8051 3.81493 68.9959 4.24407 68.9959 4.71223V33.339C68.9959 33.8114 68.8008 34.2406 68.493 34.5483C68.1853 34.8561 67.7518 35.0512 67.2836 35.0512H26.7493C26.2768 35.0512 25.8477 34.8561 25.5399 34.5483C25.2278 34.2362 25.0371 33.8071 25.0371 33.339V4.71656C25.0371 4.24407 25.2322 3.81493 25.5399 3.50717C25.852 3.19506 26.2812 3 26.7493 3ZM67.288 3.26009H26.7493C26.3505 3.26009 25.9864 3.42481 25.722 3.68923C25.4576 3.95365 25.2929 4.31777 25.2929 4.71656V33.3433C25.2929 33.7421 25.4576 34.1062 25.722 34.3706C25.9864 34.635 26.3505 34.7998 26.7493 34.7998H67.2836C67.6824 34.7998 68.0509 34.635 68.311 34.3706C68.5754 34.1062 68.7401 33.7421 68.7401 33.3433V4.71656C68.7401 4.31777 68.5754 3.95365 68.311 3.68923C68.0466 3.42481 67.6824 3.26009 67.2836 3.26009H67.288Z" fill="#F8F8F8"/>
</g>
<path fill-rule="evenodd" clip-rule="evenodd" d="M49.3244 13.5765C48.93 12.4798 47.8073 11.7992 46.6196 11.9899C45.7223 12.133 44.994 12.8005 44.6819 13.6545L40.915 24.0752C40.85 24.253 40.9844 24.4437 41.1751 24.4437H43.2124C43.3295 24.4437 43.4335 24.37 43.4725 24.2616L46.8796 14.8379C46.9273 14.7078 47.1094 14.7078 47.1571 14.8379L50.5555 24.2616C50.5945 24.37 50.6986 24.4437 50.8156 24.4437H52.8616C53.0523 24.4437 53.1867 24.253 53.1217 24.0752L49.3288 13.5765H49.3244Z" fill="url(#paint24_radial_20683_3620)"/>
<path fill-rule="evenodd" clip-rule="evenodd" d="M49.1467 13.6415C48.9647 13.1343 48.6092 12.7182 48.1627 12.4581C47.7249 12.2023 47.1961 12.0896 46.6499 12.1763C46.2424 12.2414 45.874 12.4234 45.5706 12.6835C45.2541 12.9566 45.007 13.312 44.864 13.7195L41.0971 24.1403V24.1706C41.0971 24.1706 41.0971 24.2053 41.1058 24.2183C41.1144 24.2313 41.1274 24.2443 41.1448 24.2486H41.1751L43.2124 24.253C43.2298 24.253 43.2471 24.2486 43.2601 24.24C43.2731 24.2313 43.2861 24.214 43.2905 24.201L46.6976 14.7772C46.7323 14.6732 46.8103 14.6081 46.897 14.5735C46.936 14.5605 46.975 14.5518 47.014 14.5518C47.053 14.5518 47.092 14.5605 47.1311 14.5735C47.2178 14.6081 47.2958 14.6732 47.3305 14.7772L50.7289 24.201C50.7289 24.201 50.7462 24.2313 50.7593 24.24C50.7723 24.2486 50.7896 24.253 50.8069 24.253H52.8789C52.8789 24.253 52.9093 24.2313 52.918 24.2183C52.9266 24.2053 52.931 24.1879 52.931 24.1706V24.1403L49.1337 13.6415H49.1467ZM49.3244 13.5765C48.93 12.4798 47.8073 11.7992 46.6196 11.9899C45.7223 12.1373 44.994 12.8005 44.6819 13.6545L40.915 24.0752C40.85 24.253 40.9844 24.4437 41.1751 24.4437H43.2124C43.3295 24.4437 43.4335 24.37 43.4725 24.2616L46.8796 14.8379C46.9273 14.7078 47.1094 14.7078 47.1571 14.8379L50.5555 24.2616C50.5945 24.37 50.6986 24.4437 50.8156 24.4437H52.8616C53.0523 24.4437 53.1867 24.253 53.1217 24.0752L49.3288 13.5765H49.3244Z" fill="url(#paint25_radial_20683_3620)"/>
<g style="mix-blend-mode:soft-light">
<path fill-rule="evenodd" clip-rule="evenodd" d="M49.1467 13.6415C48.9647 13.1343 48.6092 12.7182 48.1627 12.4581C47.7249 12.2023 47.1961 12.0896 46.6499 12.1763C46.2424 12.2414 45.874 12.4234 45.5706 12.6835C45.2541 12.9566 45.007 13.312 44.864 13.7195L41.0971 24.1403V24.1706C41.0971 24.1706 41.0971 24.2053 41.1058 24.2183C41.1144 24.2313 41.1274 24.2443 41.1448 24.2486H41.1751L43.2124 24.253C43.2298 24.253 43.2471 24.2486 43.2601 24.24C43.2731 24.2313 43.2861 24.214 43.2905 24.201L46.6976 14.7772C46.7323 14.6732 46.8103 14.6081 46.897 14.5735C46.936 14.5605 46.975 14.5518 47.014 14.5518C47.053 14.5518 47.092 14.5605 47.1311 14.5735C47.2178 14.6081 47.2958 14.6732 47.3305 14.7772L50.7289 24.201C50.7289 24.201 50.7462 24.2313 50.7593 24.24C50.7723 24.2486 50.7896 24.253 50.8069 24.253H52.8789C52.8789 24.253 52.9093 24.2313 52.918 24.2183C52.9266 24.2053 52.931 24.1879 52.931 24.1706V24.1403L49.1337 13.6415H49.1467ZM49.3244 13.5765C48.93 12.4798 47.8073 11.7992 46.6196 11.9899C45.7223 12.1373 44.994 12.8005 44.6819 13.6545L40.915 24.0752C40.85 24.253 40.9844 24.4437 41.1751 24.4437H43.2124C43.3295 24.4437 43.4335 24.37 43.4725 24.2616L46.8796 14.8379C46.9273 14.7078 47.1094 14.7078 47.1571 14.8379L50.5555 24.2616C50.5945 24.37 50.6986 24.4437 50.8156 24.4437H52.8616C53.0523 24.4437 53.1867 24.253 53.1217 24.0752L49.3288 13.5765H49.3244Z" fill="#F8F8F8"/>
</g>
</g>
<defs>
<radialGradient id="paint0_radial_20683_3620" cx="0" cy="0" r="1" gradientUnits="userSpaceOnUse" gradientTransform="translate(-2.72749 15.189) scale(37.0622)">
<stop stop-color="#048417"/>
<stop offset="0.49" stop-color="#048417"/>
<stop offset="0.72" stop-color="#06540E"/>
<stop offset="0.86" stop-color="#082404"/>
<stop offset="1" stop-color="#0D131B"/>
</radialGradient>
<radialGradient id="paint1_radial_20683_3620" cx="0" cy="0" r="1" gradientUnits="userSpaceOnUse" gradientTransform="translate(-0.486124 7.96762) scale(28.2799 28.2799)">
<stop stop-color="#00E42A"/>
<stop offset="0.49" stop-color="#02B421"/>
<stop offset="0.72" stop-color="#048417"/>
<stop offset="0.86" stop-color="#06540E"/>
<stop offset="1" stop-color="#082404"/>
</radialGradient>
<radialGradient id="paint2_radial_20683_3620" cx="0" cy="0" r="1" gradientUnits="userSpaceOnUse" gradientTransform="translate(5.65622 5.89561) scale(26.4854 26.4854)">
<stop stop-color="#00E42A"/>
<stop offset="0.49" stop-color="#02B421"/>
<stop offset="0.72" stop-color="#048417"/>
<stop offset="0.86" stop-color="#06540E"/>
<stop offset="1" stop-color="#082404"/>
</radialGradient>
<radialGradient id="paint3_radial_20683_3620" cx="0" cy="0" r="1" gradientUnits="userSpaceOnUse" gradientTransform="translate(-1.07977 -5.4004) scale(30.1612)">
<stop stop-color="#048417"/>
<stop offset="0.49" stop-color="#048417"/>
<stop offset="0.72" stop-color="#06540E"/>
<stop offset="0.86" stop-color="#082404"/>
<stop offset="1" stop-color="#0D131B"/>
</radialGradient>
<radialGradient id="paint4_radial_20683_3620" cx="0" cy="0" r="1" gradientUnits="userSpaceOnUse" gradientTransform="translate(33.7849 21.3579) scale(32.2592 32.2593)">
<stop stop-color="#048417"/>
<stop offset="0.49" stop-color="#048417"/>
<stop offset="0.72" stop-color="#06540E"/>
<stop offset="0.86" stop-color="#082404"/>
<stop offset="1" stop-color="#0D131B"/>
</radialGradient>
<radialGradient id="paint5_radial_20683_3620" cx="0" cy="0" r="1" gradientUnits="userSpaceOnUse" gradientTransform="translate(-0.486124 17.0877) scale(28.2799 28.2799)">
<stop stop-color="#00E42A"/>
<stop offset="0.49" stop-color="#02B421"/>
<stop offset="0.72" stop-color="#048417"/>
<stop offset="0.86" stop-color="#06540E"/>
<stop offset="1" stop-color="#082404"/>
</radialGradient>
<radialGradient id="paint6_radial_20683_3620" cx="0" cy="0" r="1" gradientUnits="userSpaceOnUse" gradientTransform="translate(5.65622 15.0157) scale(26.4854 26.4854)">
<stop stop-color="#00E42A"/>
<stop offset="0.49" stop-color="#02B421"/>
<stop offset="0.72" stop-color="#048417"/>
<stop offset="0.86" stop-color="#06540E"/>
<stop offset="1" stop-color="#082404"/>
</radialGradient>
<radialGradient id="paint7_radial_20683_3620" cx="0" cy="0" r="1" gradientUnits="userSpaceOnUse" gradientTransform="translate(-1.07977 3.72406) scale(30.1612)">
<stop stop-color="#048417"/>
<stop offset="0.49" stop-color="#048417"/>
<stop offset="0.72" stop-color="#06540E"/>
<stop offset="0.86" stop-color="#082404"/>
<stop offset="1" stop-color="#0D131B"/>
</radialGradient>
<radialGradient id="paint8_radial_20683_3620" cx="0" cy="0" r="1" gradientUnits="userSpaceOnUse" gradientTransform="translate(33.7849 30.478) scale(32.2592 32.2593)">
<stop stop-color="#048417"/>
<stop offset="0.49" stop-color="#048417"/>
<stop offset="0.72" stop-color="#06540E"/>
<stop offset="0.86" stop-color="#082404"/>
<stop offset="1" stop-color="#0D131B"/>
</radialGradient>
<radialGradient id="paint9_radial_20683_3620" cx="0" cy="0" r="1" gradientUnits="userSpaceOnUse" gradientTransform="translate(7.21674 26.2088) scale(28.2799 28.2799)">
<stop stop-color="#00E42A"/>
<stop offset="0.49" stop-color="#02B421"/>
<stop offset="0.72" stop-color="#048417"/>
<stop offset="0.86" stop-color="#06540E"/>
<stop offset="1" stop-color="#082404"/>
</radialGradient>
<radialGradient id="paint10_radial_20683_3620" cx="0" cy="0" r="1" gradientUnits="userSpaceOnUse" gradientTransform="translate(5.65622 24.1368) scale(26.4854 26.4853)">
<stop stop-color="#00E42A"/>
<stop offset="0.49" stop-color="#02B421"/>
<stop offset="0.72" stop-color="#048417"/>
<stop offset="0.86" stop-color="#06540E"/>
<stop offset="1" stop-color="#082404"/>
</radialGradient>
<radialGradient id="paint11_radial_20683_3620" cx="0" cy="0" r="1" gradientUnits="userSpaceOnUse" gradientTransform="translate(-1.07977 12.8442) scale(30.1612)">
<stop stop-color="#048417"/>
<stop offset="0.49" stop-color="#048417"/>
<stop offset="0.72" stop-color="#06540E"/>
<stop offset="0.86" stop-color="#082404"/>
<stop offset="1" stop-color="#0D131B"/>
</radialGradient>
<radialGradient id="paint12_radial_20683_3620" cx="0" cy="0" r="1" gradientUnits="userSpaceOnUse" gradientTransform="translate(33.7849 39.5981) scale(32.2592 32.2593)">
<stop stop-color="#048417"/>
<stop offset="0.49" stop-color="#048417"/>
<stop offset="0.72" stop-color="#06540E"/>
<stop offset="0.86" stop-color="#082404"/>
<stop offset="1" stop-color="#0D131B"/>
</radialGradient>
<radialGradient id="paint13_radial_20683_3620" cx="0" cy="0" r="1" gradientUnits="userSpaceOnUse" gradientTransform="translate(-0.486124 35.3329) scale(28.2799 28.2799)">
<stop stop-color="#00E42A"/>
<stop offset="0.49" stop-color="#02B421"/>
<stop offset="0.72" stop-color="#048417"/>
<stop offset="0.86" stop-color="#06540E"/>
<stop offset="1" stop-color="#082404"/>
</radialGradient>
<radialGradient id="paint14_radial_20683_3620" cx="0" cy="0" r="1" gradientUnits="userSpaceOnUse" gradientTransform="translate(5.65622 33.2608) scale(26.4854 26.4854)">
<stop stop-color="#00E42A"/>
<stop offset="0.49" stop-color="#02B421"/>
<stop offset="0.72" stop-color="#048417"/>
<stop offset="0.86" stop-color="#06540E"/>
<stop offset="1" stop-color="#082404"/>
</radialGradient>
<radialGradient id="paint15_radial_20683_3620" cx="0" cy="0" r="1" gradientUnits="userSpaceOnUse" gradientTransform="translate(-1.07977 21.9643) scale(30.1612)">
<stop stop-color="#048417"/>
<stop offset="0.49" stop-color="#048417"/>
<stop offset="0.72" stop-color="#06540E"/>
<stop offset="0.86" stop-color="#082404"/>
<stop offset="1" stop-color="#0D131B"/>
</radialGradient>
<radialGradient id="paint16_radial_20683_3620" cx="0" cy="0" r="1" gradientUnits="userSpaceOnUse" gradientTransform="translate(33.7849 48.7183) scale(32.2592 32.2593)">
<stop stop-color="#048417"/>
<stop offset="0.49" stop-color="#048417"/>
<stop offset="0.72" stop-color="#06540E"/>
<stop offset="0.86" stop-color="#082404"/>
<stop offset="1" stop-color="#0D131B"/>
</radialGradient>
<radialGradient id="paint17_radial_20683_3620" cx="0" cy="0" r="1" gradientUnits="userSpaceOnUse" gradientTransform="translate(71.689 -0.558992) scale(58.3371 58.3371)">
<stop stop-color="#00E42A"/>
<stop offset="0.49" stop-color="#02B421"/>
<stop offset="0.72" stop-color="#048417"/>
<stop offset="0.86" stop-color="#06540E"/>
<stop offset="1" stop-color="#082404"/>
</radialGradient>
<radialGradient id="paint18_radial_20683_3620" cx="0" cy="0" r="1" gradientUnits="userSpaceOnUse" gradientTransform="translate(73.7511 -1.07467) scale(68.2594 68.2594)">
<stop stop-color="#00E42A"/>
<stop offset="0.49" stop-color="#02B421"/>
<stop offset="0.72" stop-color="#048417"/>
<stop offset="0.86" stop-color="#06540E"/>
<stop offset="1" stop-color="#082404"/>
</radialGradient>
<radialGradient id="paint19_radial_20683_3620" cx="0" cy="0" r="1" gradientUnits="userSpaceOnUse" gradientTransform="translate(94.7102 -51.0718) scale(103.96 103.96)">
<stop stop-color="#048417"/>
<stop offset="0.49" stop-color="#048417"/>
<stop offset="0.72" stop-color="#06540E"/>
<stop offset="0.86" stop-color="#082404"/>
<stop offset="1" stop-color="#0D131B"/>
</radialGradient>
<radialGradient id="paint20_radial_20683_3620" cx="0" cy="0" r="1" gradientUnits="userSpaceOnUse" gradientTransform="translate(-1.5864 59.7463) scale(101.845 101.845)">
<stop stop-color="#048417"/>
<stop offset="0.49" stop-color="#048417"/>
<stop offset="0.72" stop-color="#06540E"/>
<stop offset="0.86" stop-color="#082404"/>
<stop offset="1" stop-color="#0D131B"/>
</radialGradient>
<radialGradient id="paint21_radial_20683_3620" cx="0" cy="0" r="1" gradientUnits="userSpaceOnUse" gradientTransform="translate(23.7544 18.5099) scale(40.9331 40.9331)">
<stop stop-color="#048417"/>
<stop offset="0.49" stop-color="#048417"/>
<stop offset="0.72" stop-color="#06540E"/>
<stop offset="0.86" stop-color="#082404"/>
<stop offset="1" stop-color="#0D131B"/>
</radialGradient>
<radialGradient id="paint22_radial_20683_3620" cx="0" cy="0" r="1" gradientUnits="userSpaceOnUse" gradientTransform="translate(38.6732 21.294) rotate(90) scale(12.5514 12.5514)">
<stop stop-color="#00E42A"/>
<stop offset="0.49" stop-color="#02B421"/>
<stop offset="0.72" stop-color="#048417"/>
<stop offset="0.86" stop-color="#06540E"/>
<stop offset="1" stop-color="#082404"/>
</radialGradient>
<radialGradient id="paint23_radial_20683_3620" cx="0" cy="0" r="1" gradientUnits="userSpaceOnUse" gradientTransform="translate(47.0194 27.6693) scale(18.0239 18.0239)">
<stop stop-color="#00E42A"/>
<stop offset="0.49" stop-color="#02B421"/>
<stop offset="0.72" stop-color="#048417"/>
<stop offset="0.86" stop-color="#06540E"/>
<stop offset="1" stop-color="#082404"/>
</radialGradient>
<radialGradient id="paint24_radial_20683_3620" cx="0" cy="0" r="1" gradientUnits="userSpaceOnUse" gradientTransform="translate(50.6422 12.068) scale(15.9172)">
<stop stop-color="#00E42A"/>
<stop offset="0.49" stop-color="#02B421"/>
<stop offset="0.72" stop-color="#048417"/>
<stop offset="0.86" stop-color="#06540E"/>
<stop offset="1" stop-color="#082404"/>
</radialGradient>
<radialGradient id="paint25_radial_20683_3620" cx="0" cy="0" r="1" gradientUnits="userSpaceOnUse" gradientTransform="translate(52.6362 11.175) scale(18.8909 18.8909)">
<stop stop-color="#00E42A"/>
<stop offset="0.49" stop-color="#02B421"/>
<stop offset="0.72" stop-color="#048417"/>
<stop offset="0.86" stop-color="#06540E"/>
<stop offset="1" stop-color="#082404"/>
</radialGradient>
<clipPath id="clip0_20683_3620">
<rect width="62" height="40.4086" fill="white" transform="translate(7 3)"/>
</clipPath>
</defs>
</svg>
