<svg width="81" height="47" viewBox="0 0 81 47" fill="none" xmlns="http://www.w3.org/2000/svg">
<g clip-path="url(#clip0_20683_3665)">
<g clip-path="url(#clip1_20683_3665)">
<path fill-rule="evenodd" clip-rule="evenodd" d="M48.9293 21.5881L53.263 1.01549C53.3877 0.418667 53.8999 0 54.5101 0H55.1826C55.5567 0 55.8774 0.142525 56.1313 0.418667C56.3807 0.694808 56.4921 1.02885 56.4564 1.40298L54.4299 21.5836H48.9293V21.5881ZM31.9912 21.5881L27.6531 1.01549C27.5284 0.418667 27.0162 0 26.406 0H25.7334C25.3593 0 25.0386 0.142525 24.7848 0.418667C24.5353 0.694808 24.424 1.02885 24.4596 1.40298L26.4861 21.5836H31.9867L31.9912 21.5881Z" fill="url(#paint0_radial_20683_3665)"/>
<path fill-rule="evenodd" clip-rule="evenodd" d="M13.7969 34.8922L24.7267 18.8537L24.8515 18.7023L25.0029 18.5776L25.1766 18.4796L25.3681 18.4217L25.573 18.3994H55.3473L55.5477 18.4217L55.7393 18.4796L55.913 18.5776L56.0644 18.7023L56.1891 18.8537L67.1234 34.8922L66.9096 34.6383L66.6558 34.4245L66.3618 34.2642L66.0367 34.1662L65.6893 34.1306H15.2266L14.8792 34.1662L14.554 34.2642L14.2601 34.4245L14.0062 34.6383L13.7969 34.8922Z" fill="url(#paint1_radial_20683_3665)"/>
<path fill-rule="evenodd" clip-rule="evenodd" d="M15.2148 34.1299H65.7042C66.6529 34.1299 67.4189 34.9049 67.4189 35.858V45.3715C67.4189 46.3247 66.6529 47.0996 65.7042 47.0996H15.2148C14.2661 47.0996 13.5 46.3247 13.5 45.3715V35.858C13.5 34.9049 14.2661 34.1299 15.2148 34.1299Z" fill="url(#paint2_radial_20683_3665)"/>
<path fill-rule="evenodd" clip-rule="evenodd" d="M56.0856 38.6777H59.956V42.5482H56.0856V38.6777ZM20.9398 39.7066C21.4387 39.7066 21.8484 40.1163 21.8484 40.6152C21.8484 41.114 21.4387 41.5238 20.9398 41.5238C20.441 41.5238 20.0312 41.114 20.0312 40.6152C20.0312 40.1163 20.441 39.7066 20.9398 39.7066ZM25.1132 39.7066C25.612 39.7066 26.0217 40.1163 26.0217 40.6152C26.0217 41.114 25.612 41.5238 25.1132 41.5238C24.6143 41.5238 24.2046 41.114 24.2046 40.6152C24.2046 40.1163 24.6143 39.7066 25.1132 39.7066ZM29.2865 39.7066C29.7853 39.7066 30.1951 40.1163 30.1951 40.6152C30.1951 41.114 29.7853 41.5238 29.2865 41.5238C28.7876 41.5238 28.3779 41.114 28.3779 40.6152C28.3779 40.1163 28.7876 39.7066 29.2865 39.7066ZM33.4598 39.7066C33.9586 39.7066 34.3684 40.1163 34.3684 40.6152C34.3684 41.114 33.9586 41.5238 33.4598 41.5238C32.9609 41.5238 32.5512 41.114 32.5512 40.6152C32.5512 40.1163 32.9609 39.7066 33.4598 39.7066ZM49.2845 38.6777H53.1549V42.5482H49.2845V38.6777Z" fill="url(#paint3_radial_20683_3665)"/>
<path fill-rule="evenodd" clip-rule="evenodd" d="M56.0886 38.5264H59.959L60.1104 38.6778V42.5482L59.959 42.6997H56.0886L55.9371 42.5482V38.6778L56.0886 38.5264ZM59.8076 38.8292H56.24V42.3968H59.8076V38.8292ZM20.9428 39.5508C21.2368 39.5508 21.4996 39.671 21.6911 39.8625C21.8826 40.0541 22.0029 40.3213 22.0029 40.6108C22.0029 40.9003 21.8826 41.1675 21.6911 41.359C21.4996 41.5506 21.2323 41.6708 20.9428 41.6708C20.6533 41.6708 20.3861 41.5506 20.1946 41.359C20.0031 41.1675 19.8828 40.9003 19.8828 40.6108C19.8828 40.3213 20.0031 40.0541 20.1946 39.8625C20.3861 39.671 20.6533 39.5508 20.9428 39.5508ZM20.9428 39.8581C20.7335 39.8581 20.5464 39.9427 20.4084 40.0808C20.2703 40.2188 20.1857 40.4059 20.1857 40.6152C20.1857 40.8246 20.2703 41.0116 20.4084 41.1497C20.5464 41.2878 20.7335 41.3724 20.9428 41.3724C21.1522 41.3724 21.3392 41.2878 21.4773 41.1497C21.6154 41.0116 21.7 40.8246 21.7 40.6152C21.7 40.4059 21.6154 40.2188 21.4773 40.0808C21.3392 39.9427 21.1522 39.8581 20.9428 39.8581ZM25.1161 39.5508C25.4101 39.5508 25.6729 39.671 25.8644 39.8625C26.0559 40.0541 26.1762 40.3213 26.1762 40.6108C26.1762 40.9003 26.0559 41.1675 25.8644 41.359C25.6729 41.5506 25.4056 41.6708 25.1161 41.6708C24.8266 41.6708 24.5594 41.5506 24.3679 41.359C24.1764 41.1675 24.0561 40.9003 24.0561 40.6108C24.0561 40.3213 24.1764 40.0541 24.3679 39.8625C24.5594 39.671 24.8266 39.5508 25.1161 39.5508ZM25.1161 39.8581C24.9068 39.8581 24.7197 39.9427 24.5817 40.0808C24.4436 40.2188 24.359 40.4059 24.359 40.6152C24.359 40.8246 24.4436 41.0116 24.5817 41.1497C24.7197 41.2878 24.9068 41.3724 25.1161 41.3724C25.3255 41.3724 25.5125 41.2878 25.6506 41.1497C25.7887 41.0116 25.8733 40.8246 25.8733 40.6152C25.8733 40.4059 25.7887 40.2188 25.6506 40.0808C25.5125 39.9427 25.3255 39.8581 25.1161 39.8581ZM29.2894 39.5508C29.5834 39.5508 29.8462 39.671 30.0377 39.8625C30.2292 40.0541 30.3495 40.3213 30.3495 40.6108C30.3495 40.9003 30.2292 41.1675 30.0377 41.359C29.8462 41.5506 29.579 41.6708 29.2894 41.6708C28.9999 41.6708 28.7327 41.5506 28.5412 41.359C28.3497 41.1675 28.2294 40.9003 28.2294 40.6108C28.2294 40.3213 28.3497 40.0541 28.5412 39.8625C28.7327 39.671 28.9999 39.5508 29.2894 39.5508ZM29.2894 39.8581C29.0801 39.8581 28.8931 39.9427 28.755 40.0808C28.6169 40.2188 28.5323 40.4059 28.5323 40.6152C28.5323 40.8246 28.6169 41.0116 28.755 41.1497C28.8931 41.2878 29.0801 41.3724 29.2894 41.3724C29.4988 41.3724 29.6858 41.2878 29.8239 41.1497C29.962 41.0116 30.0466 40.8246 30.0466 40.6152C30.0466 40.4059 29.962 40.2188 29.8239 40.0808C29.6858 39.9427 29.4988 39.8581 29.2894 39.8581ZM33.4628 39.5508C33.7567 39.5508 34.0195 39.671 34.211 39.8625C34.4025 40.0541 34.5228 40.3213 34.5228 40.6108C34.5228 40.9003 34.4025 41.1675 34.211 41.359C34.0195 41.5506 33.7523 41.6708 33.4628 41.6708C33.1733 41.6708 32.906 41.5506 32.7145 41.359C32.523 41.1675 32.4027 40.9003 32.4027 40.6108C32.4027 40.3213 32.523 40.0541 32.7145 39.8625C32.906 39.671 33.1733 39.5508 33.4628 39.5508ZM33.4628 39.8581C33.2534 39.8581 33.0664 39.9427 32.9283 40.0808C32.7902 40.2188 32.7056 40.4059 32.7056 40.6152C32.7056 40.8246 32.7902 41.0116 32.9283 41.1497C33.0664 41.2878 33.2534 41.3724 33.4628 41.3724C33.6721 41.3724 33.8592 41.2878 33.9972 41.1497C34.1353 41.0116 34.2199 40.8246 34.2199 40.6152C34.2199 40.4059 34.1353 40.2188 33.9972 40.0808C33.8592 39.9427 33.6721 39.8581 33.4628 39.8581ZM49.2875 38.5264H53.1579L53.3093 38.6778V42.5482L53.1579 42.6997H49.2875L49.136 42.5482V38.6778L49.2875 38.5264ZM53.0065 38.8292H49.4389V42.3968H53.0065V38.8292Z" fill="url(#paint4_radial_20683_3665)"/>
<path fill-rule="evenodd" clip-rule="evenodd" d="M15.2281 34.1299H65.6908C66.6395 34.1299 67.4189 34.9093 67.4189 35.858V45.3715C67.4189 46.3202 66.6395 47.0996 65.6908 47.0996H15.2281C14.2794 47.0996 13.5 46.3202 13.5 45.3715V35.858C13.5 34.9093 14.2794 34.1299 15.2281 34.1299ZM65.6908 34.5842H15.2281C14.8807 34.5842 14.56 34.7267 14.3329 34.9583C14.1057 35.1899 13.9588 35.5061 13.9588 35.8535V45.3671C13.9588 45.7145 14.1013 46.0352 14.3329 46.2623C14.5645 46.4895 14.8807 46.6364 15.2281 46.6364H65.6908C66.0382 46.6364 66.3589 46.4939 66.586 46.2623C66.8132 46.0307 66.9602 45.7145 66.9602 45.3671V35.8535C66.9602 35.5061 66.8176 35.1855 66.586 34.9583C66.3544 34.7267 66.0382 34.5842 65.6908 34.5842Z" fill="url(#paint5_radial_20683_3665)"/>
<g style="mix-blend-mode:soft-light">
<path fill-rule="evenodd" clip-rule="evenodd" d="M56.0886 38.5264H59.959L60.1104 38.6778V42.5482L59.959 42.6997H56.0886L55.9371 42.5482V38.6778L56.0886 38.5264ZM59.8076 38.8292H56.24V42.3968H59.8076V38.8292ZM20.9428 39.5508C21.2368 39.5508 21.4996 39.671 21.6911 39.8625C21.8826 40.0541 22.0029 40.3213 22.0029 40.6108C22.0029 40.9003 21.8826 41.1675 21.6911 41.359C21.4996 41.5506 21.2323 41.6708 20.9428 41.6708C20.6533 41.6708 20.3861 41.5506 20.1946 41.359C20.0031 41.1675 19.8828 40.9003 19.8828 40.6108C19.8828 40.3213 20.0031 40.0541 20.1946 39.8625C20.3861 39.671 20.6533 39.5508 20.9428 39.5508ZM20.9428 39.8581C20.7335 39.8581 20.5464 39.9427 20.4084 40.0808C20.2703 40.2188 20.1857 40.4059 20.1857 40.6152C20.1857 40.8246 20.2703 41.0116 20.4084 41.1497C20.5464 41.2878 20.7335 41.3724 20.9428 41.3724C21.1522 41.3724 21.3392 41.2878 21.4773 41.1497C21.6154 41.0116 21.7 40.8246 21.7 40.6152C21.7 40.4059 21.6154 40.2188 21.4773 40.0808C21.3392 39.9427 21.1522 39.8581 20.9428 39.8581ZM25.1161 39.5508C25.4101 39.5508 25.6729 39.671 25.8644 39.8625C26.0559 40.0541 26.1762 40.3213 26.1762 40.6108C26.1762 40.9003 26.0559 41.1675 25.8644 41.359C25.6729 41.5506 25.4056 41.6708 25.1161 41.6708C24.8266 41.6708 24.5594 41.5506 24.3679 41.359C24.1764 41.1675 24.0561 40.9003 24.0561 40.6108C24.0561 40.3213 24.1764 40.0541 24.3679 39.8625C24.5594 39.671 24.8266 39.5508 25.1161 39.5508ZM25.1161 39.8581C24.9068 39.8581 24.7197 39.9427 24.5817 40.0808C24.4436 40.2188 24.359 40.4059 24.359 40.6152C24.359 40.8246 24.4436 41.0116 24.5817 41.1497C24.7197 41.2878 24.9068 41.3724 25.1161 41.3724C25.3255 41.3724 25.5125 41.2878 25.6506 41.1497C25.7887 41.0116 25.8733 40.8246 25.8733 40.6152C25.8733 40.4059 25.7887 40.2188 25.6506 40.0808C25.5125 39.9427 25.3255 39.8581 25.1161 39.8581ZM29.2894 39.5508C29.5834 39.5508 29.8462 39.671 30.0377 39.8625C30.2292 40.0541 30.3495 40.3213 30.3495 40.6108C30.3495 40.9003 30.2292 41.1675 30.0377 41.359C29.8462 41.5506 29.579 41.6708 29.2894 41.6708C28.9999 41.6708 28.7327 41.5506 28.5412 41.359C28.3497 41.1675 28.2294 40.9003 28.2294 40.6108C28.2294 40.3213 28.3497 40.0541 28.5412 39.8625C28.7327 39.671 28.9999 39.5508 29.2894 39.5508ZM29.2894 39.8581C29.0801 39.8581 28.8931 39.9427 28.755 40.0808C28.6169 40.2188 28.5323 40.4059 28.5323 40.6152C28.5323 40.8246 28.6169 41.0116 28.755 41.1497C28.8931 41.2878 29.0801 41.3724 29.2894 41.3724C29.4988 41.3724 29.6858 41.2878 29.8239 41.1497C29.962 41.0116 30.0466 40.8246 30.0466 40.6152C30.0466 40.4059 29.962 40.2188 29.8239 40.0808C29.6858 39.9427 29.4988 39.8581 29.2894 39.8581ZM33.4628 39.5508C33.7567 39.5508 34.0195 39.671 34.211 39.8625C34.4025 40.0541 34.5228 40.3213 34.5228 40.6108C34.5228 40.9003 34.4025 41.1675 34.211 41.359C34.0195 41.5506 33.7523 41.6708 33.4628 41.6708C33.1733 41.6708 32.906 41.5506 32.7145 41.359C32.523 41.1675 32.4027 40.9003 32.4027 40.6108C32.4027 40.3213 32.523 40.0541 32.7145 39.8625C32.906 39.671 33.1733 39.5508 33.4628 39.5508ZM33.4628 39.8581C33.2534 39.8581 33.0664 39.9427 32.9283 40.0808C32.7902 40.2188 32.7056 40.4059 32.7056 40.6152C32.7056 40.8246 32.7902 41.0116 32.9283 41.1497C33.0664 41.2878 33.2534 41.3724 33.4628 41.3724C33.6721 41.3724 33.8592 41.2878 33.9972 41.1497C34.1353 41.0116 34.2199 40.8246 34.2199 40.6152C34.2199 40.4059 34.1353 40.2188 33.9972 40.0808C33.8592 39.9427 33.6721 39.8581 33.4628 39.8581ZM49.2875 38.5264H53.1579L53.3093 38.6778V42.5482L53.1579 42.6997H49.2875L49.136 42.5482V38.6778L49.2875 38.5264ZM53.0065 38.8292H49.4389V42.3968H53.0065V38.8292Z" fill="#F8F8F8"/>
</g>
<path fill-rule="evenodd" clip-rule="evenodd" d="M42.8505 23.7969C42.4274 23.1199 41.2649 22.7012 40.0446 22.817C39.1182 22.9061 38.361 23.3159 38.027 23.8414C37.35 24.9104 36.6596 25.9882 35.9514 27.0527C35.2433 28.1261 34.5039 29.195 33.769 30.264C33.6933 30.3753 33.8314 30.4911 34.0407 30.4911H36.2766C36.4013 30.4911 36.5171 30.4466 36.5661 30.3798C37.2119 29.4133 37.8533 28.4468 38.4768 27.4758C39.0959 26.5093 39.7016 25.5384 40.3029 24.5719C40.3519 24.4917 40.5479 24.4917 40.5924 24.5719C41.1937 25.5384 41.795 26.5093 42.4141 27.4758C43.0376 28.4468 43.679 29.4133 44.3248 30.3798C44.3693 30.4466 44.4851 30.4911 44.6143 30.4911H46.859C47.0684 30.4911 47.2064 30.3753 47.1307 30.264C46.3825 29.1861 45.6476 28.1083 44.9305 27.0304C44.2179 25.957 43.5275 24.8703 42.8416 23.7924L42.8505 23.7969Z" fill="url(#paint6_radial_20683_3665)"/>
<path fill-rule="evenodd" clip-rule="evenodd" d="M42.8516 23.7967C42.4285 23.1197 41.266 22.701 40.0457 22.8168C39.1193 22.9059 38.3621 23.3157 38.028 23.8412C37.3511 24.9102 36.6607 25.988 35.9525 27.0525C35.2444 28.1259 34.505 29.1948 33.7701 30.2637C33.6944 30.3751 33.8325 30.4909 34.0374 30.4909H36.2732C36.4024 30.4909 36.5182 30.4463 36.5627 30.3795C37.2085 29.413 37.8499 28.4465 38.4734 27.4756C39.0925 26.5091 39.6983 25.5382 40.2995 24.5717C40.3485 24.4915 40.5445 24.4915 40.589 24.5717C41.1903 25.5382 41.7916 26.5091 42.4107 27.4756C43.0342 28.4465 43.6756 29.413 44.3214 30.3795C44.3659 30.4463 44.4817 30.4909 44.6109 30.4909H46.8557C47.065 30.4909 47.2031 30.3751 47.1274 30.2637C46.3791 29.1859 45.6442 28.1081 44.9271 27.0302C44.2145 25.9568 43.5242 24.8701 42.8383 23.7922L42.8516 23.7967ZM41.8361 22.9059C42.3751 23.093 42.8071 23.3914 43.0387 23.7566C43.7157 24.8344 44.4149 25.9212 45.1276 26.9946C45.8446 28.0769 46.5884 29.1503 47.3367 30.2281C47.359 30.2593 47.3723 30.2949 47.3723 30.3261C47.3723 30.384 47.3456 30.4419 47.2877 30.4909C47.2343 30.5354 47.1452 30.5755 47.0472 30.5933C46.9937 30.6067 46.9358 30.6111 46.8779 30.6111H44.6332C44.5263 30.6111 44.4238 30.5933 44.3392 30.5577C44.2546 30.5265 44.1878 30.4775 44.1477 30.4196C43.5063 29.462 42.8739 28.5044 42.2593 27.5469C41.6446 26.5893 41.0478 25.6317 40.4599 24.6696C39.8631 25.6272 39.2618 26.5893 38.6516 27.5469C38.037 28.5044 37.4045 29.462 36.7631 30.4196C36.7231 30.4775 36.6562 30.5221 36.5716 30.5577C36.487 30.5889 36.3846 30.6111 36.2732 30.6111H34.0374C33.975 30.6111 33.9216 30.6067 33.8681 30.5933C33.7657 30.5755 33.6855 30.5354 33.6276 30.4909C33.5697 30.4419 33.543 30.3884 33.543 30.3261C33.543 30.2949 33.5563 30.2593 33.5786 30.2281C34.3179 29.1592 35.0528 28.0902 35.761 27.0168C36.4692 25.9479 37.164 24.8745 37.8454 23.8056C38.028 23.5161 38.3265 23.2622 38.7006 23.0707C39.0703 22.8836 39.5156 22.75 40.01 22.7055C40.6648 22.6431 41.2972 22.7233 41.8272 22.9059H41.8361Z" fill="url(#paint7_radial_20683_3665)"/>
</g>
</g>
<defs>
<radialGradient id="paint0_radial_20683_3665" cx="0" cy="0" r="1" gradientUnits="userSpaceOnUse" gradientTransform="translate(40.6672 -2.22695) rotate(90) scale(26.0553 26.0553)">
<stop stop-color="#048417"/>
<stop offset="0.49" stop-color="#048417"/>
<stop offset="0.72" stop-color="#06540E"/>
<stop offset="0.86" stop-color="#082404"/>
<stop offset="1" stop-color="#0D131B"/>
</radialGradient>
<radialGradient id="paint1_radial_20683_3665" cx="0" cy="0" r="1" gradientUnits="userSpaceOnUse" gradientTransform="translate(72.29 22.2698) rotate(171.101) scale(63.3398 84.4531)">
<stop stop-color="#00E42A"/>
<stop offset="0.42" stop-color="#02B421"/>
<stop offset="0.64" stop-color="#048417"/>
<stop offset="0.81" stop-color="#06540E"/>
<stop offset="1" stop-color="#082404"/>
</radialGradient>
<radialGradient id="paint2_radial_20683_3665" cx="0" cy="0" r="1" gradientUnits="userSpaceOnUse" gradientTransform="translate(168.941 20.0422) rotate(170.313) scale(177.344 68.2093)">
<stop stop-color="#048417"/>
<stop offset="0.49" stop-color="#048417"/>
<stop offset="0.72" stop-color="#06540E"/>
<stop offset="0.86" stop-color="#082404"/>
<stop offset="1" stop-color="#0D131B"/>
</radialGradient>
<radialGradient id="paint3_radial_20683_3665" cx="0" cy="0" r="1" gradientUnits="userSpaceOnUse" gradientTransform="translate(60.1089 38.0409) rotate(172.96) scale(58.4024 58.4024)">
<stop stop-color="#00E42A"/>
<stop offset="0.42" stop-color="#02B421"/>
<stop offset="0.64" stop-color="#048417"/>
<stop offset="0.81" stop-color="#06540E"/>
<stop offset="1" stop-color="#082404"/>
</radialGradient>
<radialGradient id="paint4_radial_20683_3665" cx="0" cy="0" r="1" gradientUnits="userSpaceOnUse" gradientTransform="translate(108.937 35.1831) rotate(173.99) scale(44.1366 44.1367)">
<stop stop-color="#00E42A"/>
<stop offset="0.39" stop-color="#02B421"/>
<stop offset="0.64" stop-color="#048417"/>
<stop offset="0.81" stop-color="#06540E"/>
<stop offset="1" stop-color="#082404"/>
</radialGradient>
<radialGradient id="paint5_radial_20683_3665" cx="0" cy="0" r="1" gradientUnits="userSpaceOnUse" gradientTransform="translate(82.9721 32.161) rotate(170.11) scale(59.149 59.1491)">
<stop stop-color="#00E42A"/>
<stop offset="0.49" stop-color="#02B421"/>
<stop offset="0.72" stop-color="#048417"/>
<stop offset="0.86" stop-color="#06540E"/>
<stop offset="1" stop-color="#082404"/>
</radialGradient>
<radialGradient id="paint6_radial_20683_3665" cx="0" cy="0" r="1" gradientUnits="userSpaceOnUse" gradientTransform="translate(19.6865 22.4722) rotate(139.29) scale(47.2915)">
<stop stop-color="#048417"/>
<stop offset="0.49" stop-color="#048417"/>
<stop offset="0.72" stop-color="#06540E"/>
<stop offset="0.86" stop-color="#082404"/>
<stop offset="1" stop-color="#0D131B"/>
</radialGradient>
<radialGradient id="paint7_radial_20683_3665" cx="0" cy="0" r="1" gradientUnits="userSpaceOnUse" gradientTransform="translate(92.6194 36.3039) rotate(-37.03) scale(38.9919)">
<stop stop-color="#048417"/>
<stop offset="0.49" stop-color="#048417"/>
<stop offset="0.72" stop-color="#06540E"/>
<stop offset="0.86" stop-color="#082404"/>
<stop offset="1" stop-color="#0D131B"/>
</radialGradient>
<clipPath id="clip0_20683_3665">
<rect width="80" height="47" fill="white" transform="translate(0.5)"/>
</clipPath>
<clipPath id="clip1_20683_3665">
<rect width="53.9189" height="47.1" fill="white" transform="translate(13.5)"/>
</clipPath>
</defs>
</svg>
