<svg width="81" height="47" viewBox="0 0 81 47" fill="none" xmlns="http://www.w3.org/2000/svg">
<g clip-path="url(#clip0_20683_3689)">
<path fill-rule="evenodd" clip-rule="evenodd" d="M18.2456 1.33691H62.6739C63.4529 1.33691 64.0816 2.08407 64.0816 3.00434V37.4098C64.0816 38.3301 63.4529 39.0772 62.6739 39.0772H18.2456C17.4666 39.0772 16.8379 38.3301 16.8379 37.4098V3.00434C16.8379 2.08407 17.4666 1.33691 18.2456 1.33691Z" fill="url(#paint0_radial_20683_3689)"/>
<path fill-rule="evenodd" clip-rule="evenodd" d="M62.4134 1.33713H18.5046C17.5888 1.33713 16.8371 2.08884 16.8371 3.00456V37.41C16.8371 38.3257 17.5888 39.0774 18.5046 39.0774H62.4134C63.3292 39.0774 64.0809 38.3257 64.0809 37.41V3.00456C64.0809 2.08884 63.3292 1.33713 62.4134 1.33713ZM18.5046 1H62.4134C62.9647 1 63.4658 1.22779 63.8303 1.5877C64.1948 1.95216 64.418 2.4533 64.418 3.00456V37.41C64.418 37.9613 64.1902 38.4624 63.8303 38.8269C63.4658 39.1913 62.9647 39.4146 62.4134 39.4146H18.5046C17.9533 39.4146 17.4522 39.1868 17.0877 38.8269C16.7232 38.4624 16.5 37.9613 16.5 37.41V3.00456C16.5 2.4533 16.7278 1.95216 17.0877 1.5877C17.4522 1.22323 17.9533 1 18.5046 1Z" fill="url(#paint1_radial_20683_3689)"/>
<path fill-rule="evenodd" clip-rule="evenodd" d="M64.0816 6.64941H16.8379V37.4102C16.8379 38.326 17.5896 39.0777 18.5053 39.0777H62.4142C63.3299 39.0777 64.0816 38.326 64.0816 37.4102V6.64941Z" fill="url(#paint2_radial_20683_3689)"/>
<path d="M20.0433 4.97722C20.5893 4.97722 21.0319 4.53461 21.0319 3.98861C21.0319 3.44262 20.5893 3 20.0433 3C19.4973 3 19.0547 3.44262 19.0547 3.98861C19.0547 4.53461 19.4973 4.97722 20.0433 4.97722Z" fill="url(#paint3_radial_20683_3689)"/>
<path d="M23.2562 4.97722C23.8022 4.97722 24.2448 4.53461 24.2448 3.98861C24.2448 3.44262 23.8022 3 23.2562 3C22.7102 3 22.2676 3.44262 22.2676 3.98861C22.2676 4.53461 22.7102 4.97722 23.2562 4.97722Z" fill="url(#paint4_radial_20683_3689)"/>
<path d="M26.4671 4.97722C27.0131 4.97722 27.4557 4.53461 27.4557 3.98861C27.4557 3.44262 27.0131 3 26.4671 3C25.9211 3 25.4785 3.44262 25.4785 3.98861C25.4785 4.53461 25.9211 4.97722 26.4671 4.97722Z" fill="url(#paint5_radial_20683_3689)"/>
<path fill-rule="evenodd" clip-rule="evenodd" d="M34.806 6.64899L36.724 1.33691H35.0019L33.0839 6.64899H31.3573L33.2752 1.33691H31.5486L29.6306 6.64899H16.8379V7.10457H17.0475H29.4666H31.1932H32.9199H34.642H63.8766H64.0816V6.64899H34.806Z" fill="url(#paint6_radial_20683_3689)"/>
<path fill-rule="evenodd" clip-rule="evenodd" d="M44.7367 20.2616H51.3973C51.575 20.2616 51.7208 20.1249 51.739 19.9518C51.8984 18.1932 53.3745 16.8174 55.1695 16.8174C56.9645 16.8174 58.4451 18.1932 58.6 19.9518C58.6137 20.1295 58.764 20.2616 58.9417 20.2616H65.6023C66.0716 20.2616 66.4542 20.6443 66.4542 21.1135V27.7741C66.4542 27.9518 66.5909 28.0976 66.764 28.1158C68.5226 28.2752 69.8984 29.7513 69.8984 31.5463C69.8984 33.3413 68.5226 34.8219 66.764 34.9768C66.5864 34.9905 66.4542 35.1408 66.4542 35.3185V41.9791C66.4542 42.4484 66.0716 42.8311 65.6023 42.8311H44.7367C44.2675 42.8311 43.8848 42.4484 43.8848 41.9791V35.3185C43.8848 35.1408 44.0214 34.9951 44.1946 34.9768C45.9531 34.8174 47.329 33.3413 47.329 31.5463C47.329 29.7513 45.9531 28.2707 44.1946 28.1158C44.0169 28.1021 43.8848 27.9518 43.8848 27.7741V21.1135C43.8848 20.6443 44.2675 20.2616 44.7367 20.2616Z" fill="url(#paint7_radial_20683_3689)"/>
<path fill-rule="evenodd" clip-rule="evenodd" d="M44.7374 18.3387H50.1633C50.464 17.5506 50.9469 16.8535 51.5529 16.2977C52.5096 15.4276 53.7761 14.8945 55.1656 14.8945C56.5551 14.8945 57.8262 15.4276 58.7784 16.2977C59.3889 16.8535 59.8672 17.5506 60.1679 18.3387H65.5939C66.3592 18.3387 67.0563 18.6485 67.5574 19.1542C68.0586 19.6554 68.3729 20.3524 68.3729 21.1178V26.5437C69.1611 26.8444 69.8581 27.3273 70.4139 27.9333C71.2841 28.89 71.8171 30.1565 71.8171 31.546C71.8171 32.9355 71.2841 34.2066 70.4139 35.1588C69.8581 35.7692 69.1611 36.2476 68.3729 36.5483V41.9743C68.3729 42.7396 68.0631 43.4367 67.5574 43.9378C67.0563 44.439 66.3592 44.7533 65.5939 44.7533H44.7283C43.9629 44.7533 43.2658 44.4435 42.7647 43.9378C42.2636 43.4367 41.9492 42.7396 41.9492 41.9743V35.3137C41.9492 34.7351 42.177 34.1975 42.5506 33.792C42.9242 33.382 43.439 33.1087 44.0221 33.0585H44.1315C44.4686 32.9948 44.7738 32.8216 45.0016 32.5756C45.2476 32.3068 45.398 31.9424 45.398 31.546C45.398 31.1497 45.2522 30.7806 45.0062 30.5164C44.7556 30.2431 44.4094 30.0563 44.0267 30.0244H44.0176C43.4299 29.9697 42.915 29.7009 42.546 29.3C42.4686 29.218 42.4002 29.1269 42.341 29.0358C42.095 28.6713 41.9492 28.2385 41.9492 27.7784V21.1178C41.9492 20.3524 42.259 19.6554 42.7647 19.1542C43.2658 18.6531 43.9629 18.3387 44.7283 18.3387H44.7374ZM44.7374 20.2613H51.398C51.5756 20.2613 51.7214 20.1246 51.7397 19.9515C51.8991 18.1929 53.3752 16.8171 55.1702 16.8171C56.9652 16.8171 58.4458 18.1929 58.6007 19.9515C58.6144 20.1292 58.7647 20.2613 58.9424 20.2613H65.603C66.0722 20.2613 66.4549 20.644 66.4549 21.1132V27.7738C66.4549 27.9515 66.5916 28.0973 66.7647 28.1155C68.5233 28.2749 69.8991 29.751 69.8991 31.546C69.8991 33.341 68.5233 34.8216 66.7647 34.9765C66.587 34.9902 66.4549 35.1405 66.4549 35.3182V41.9788C66.4549 42.4481 66.0722 42.8308 65.603 42.8308H44.7374C44.2681 42.8308 43.8854 42.4481 43.8854 41.9788V35.3182C43.8854 35.1405 44.0221 34.9948 44.1952 34.9765C45.9538 34.8171 47.3296 33.341 47.3296 31.546C47.3296 29.751 45.9538 28.2704 44.1952 28.1155C44.0176 28.1018 43.8854 27.9515 43.8854 27.7738V21.1132C43.8854 20.644 44.2681 20.2613 44.7374 20.2613Z" fill="url(#paint8_radial_20683_3689)"/>
<path fill-rule="evenodd" clip-rule="evenodd" d="M44.7373 18.0975H50.0038C50.1496 17.7467 50.3318 17.4141 50.546 17.0998C50.792 16.7399 51.079 16.4119 51.3979 16.1203C51.9081 15.6556 52.5004 15.2866 53.1519 15.0315C53.7806 14.7854 54.464 14.6533 55.1747 14.6533C55.8854 14.6533 56.5687 14.7854 57.1974 15.0315C57.8489 15.2866 58.4457 15.6556 58.9514 16.1203C59.2703 16.4119 59.5574 16.7399 59.8034 17.0998C60.0175 17.4096 60.1952 17.7467 60.3455 18.0975H65.612C66.0175 18.0975 66.4093 18.1795 66.7646 18.3253C67.1337 18.4802 67.4662 18.7034 67.7441 18.9813C68.2908 19.528 68.628 20.2843 68.628 21.1135V26.38C68.9788 26.5258 69.3113 26.708 69.6257 26.9221C69.9856 27.1681 70.3136 27.4551 70.6052 27.7741C71.0699 28.2797 71.4389 28.8766 71.694 29.528C71.94 30.1567 72.0722 30.8401 72.0722 31.5508C72.0722 32.2615 71.94 32.9449 71.694 33.5736C71.4389 34.2251 71.0699 34.8173 70.6052 35.3276C70.3136 35.6465 69.9856 35.9335 69.6257 36.1795C69.3159 36.3936 68.9788 36.5713 68.628 36.7217V41.9882C68.628 42.3936 68.546 42.7854 68.4002 43.1408C68.2453 43.5098 68.022 43.8424 67.7441 44.1203C67.1974 44.667 66.4412 45.0041 65.612 45.0041H44.7464C44.3409 45.0041 43.9491 44.9221 43.5938 44.7763C43.2248 44.6214 42.8922 44.3982 42.6143 44.1203C42.0676 43.5736 41.7305 42.8173 41.7305 41.9882V35.3276C41.7305 35.0132 41.7897 34.708 41.9036 34.4255C42.0175 34.1385 42.186 33.8697 42.3956 33.6419C42.6052 33.4096 42.8558 33.2228 43.1382 33.0816C43.4116 32.9449 43.7077 32.8583 44.022 32.831H44.1223C44.2589 32.8037 44.3865 32.7535 44.505 32.6898C44.6325 32.6214 44.7464 32.5303 44.8421 32.4255C44.9469 32.3116 45.0334 32.175 45.0927 32.0246C45.1473 31.8834 45.1792 31.7239 45.1792 31.5554C45.1792 31.3868 45.1473 31.2274 45.0972 31.0816C45.0562 30.9722 45.0015 30.872 44.9332 30.7809L44.8466 30.6898C44.7373 30.5713 44.6097 30.4711 44.4685 30.4028C44.3318 30.3344 44.1815 30.2889 44.0266 30.2752H44.0175C43.6986 30.2479 43.3979 30.1613 43.1291 30.0246C42.8466 29.8879 42.6006 29.6966 42.3911 29.4688C42.3501 29.4233 42.3091 29.3731 42.2726 29.323C42.2362 29.2729 42.1997 29.2228 42.1633 29.1681C42.0266 28.9631 41.9173 28.7444 41.8444 28.5075C41.7715 28.2752 41.735 28.0337 41.735 27.7832V21.1226C41.735 20.7171 41.817 20.3253 41.9628 19.9699C42.1177 19.6009 42.3409 19.2684 42.6189 18.9905C43.1655 18.4438 43.9218 18.1066 44.751 18.1066L44.7373 18.0975ZM44.7373 18.339H50.1633C50.464 17.5508 50.9469 16.8538 51.5528 16.298C52.5095 15.4278 53.776 14.8948 55.1656 14.8948C56.5551 14.8948 57.8261 15.4278 58.7783 16.298C59.3888 16.8538 59.8671 17.5508 60.1678 18.339H65.5938C66.3592 18.339 67.0562 18.6488 67.5574 19.1545C68.0585 19.6556 68.3728 20.3526 68.3728 21.118V26.544C69.161 26.8447 69.858 27.3276 70.4138 27.9335C71.284 28.8902 71.817 30.1567 71.817 31.5463C71.817 32.9358 71.284 34.2069 70.4138 35.159C69.858 35.7695 69.161 36.2479 68.3728 36.5485V41.9745C68.3728 42.7399 68.063 43.4369 67.5574 43.9381C67.0562 44.4392 66.3592 44.7535 65.5938 44.7535H44.7282C43.9628 44.7535 43.2658 44.4438 42.7646 43.9381C42.2635 43.4369 41.9491 42.7399 41.9491 41.9745V35.3139C41.9491 34.7353 42.1769 34.1977 42.5505 33.7923C42.9241 33.3823 43.4389 33.1089 44.022 33.0588H44.1314C44.4685 32.995 44.7737 32.8219 45.0015 32.5759C45.2476 32.3071 45.3979 31.9426 45.3979 31.5463C45.3979 31.1499 45.2521 30.7809 45.0061 30.5166C44.7555 30.2433 44.4093 30.0565 44.0266 30.0246H44.0175C43.4298 29.9699 42.915 29.7012 42.546 29.3002C42.4685 29.2182 42.4002 29.1271 42.3409 29.036C42.0949 28.6715 41.9491 28.2387 41.9491 27.7786V21.118C41.9491 20.3526 42.2589 19.6556 42.7646 19.1545C43.2658 18.6533 43.9628 18.339 44.7282 18.339H44.7373Z" fill="url(#paint9_radial_20683_3689)"/>
<path fill-rule="evenodd" clip-rule="evenodd" d="M57.7223 26.6443C57.3396 25.5873 56.2599 24.9268 55.1118 25.1135C54.2462 25.2548 53.5446 25.8971 53.244 26.7217L49.6084 36.7764C49.5446 36.9495 49.6722 37.1318 49.859 37.1318H51.8271C51.941 37.1318 52.0367 37.0634 52.0777 36.9586L55.3624 27.8653C55.408 27.7377 55.5856 27.7377 55.6312 27.8653L58.9114 36.9586C58.9478 37.0634 59.0481 37.1363 59.1619 37.1363H61.1346C61.3168 37.1363 61.449 36.9541 61.3852 36.781L57.7223 26.6534V26.6443Z" fill="url(#paint10_radial_20683_3689)"/>
<path fill-rule="evenodd" clip-rule="evenodd" d="M57.7213 26.644C57.3386 25.587 56.2588 24.9264 55.1108 25.1132C54.2452 25.2544 53.5436 25.8968 53.2429 26.7214L49.6074 36.7761C49.5436 36.9492 49.6711 37.1314 49.8579 37.1314H51.826C51.9399 37.1314 52.0356 37.0631 52.0766 36.9538L55.3613 27.8604C55.4069 27.7328 55.5846 27.7328 55.6301 27.8604L58.9103 36.9538C58.9468 37.0585 59.047 37.1314 59.1609 37.1314H61.1336C61.3158 37.1314 61.4479 36.9492 61.3841 36.7761L57.7213 26.6485V26.644ZM56.7828 25.2499C57.2839 25.546 57.6848 26.0107 57.8898 26.5802L61.5527 36.7077C61.5709 36.7579 61.58 36.8125 61.58 36.8581C61.58 36.9492 61.5481 37.0403 61.498 37.1132C61.4479 37.1861 61.375 37.2453 61.2839 37.2772C61.2338 37.2954 61.1837 37.3046 61.1336 37.3046H59.1609C59.0652 37.3046 58.9787 37.2727 58.9058 37.2225C58.8329 37.1724 58.7736 37.0995 58.7418 37.0084L55.498 28.0153L52.2497 37.0084C52.2178 37.095 52.1586 37.1724 52.0857 37.2225C52.0128 37.2727 51.9217 37.3046 51.8306 37.3046H49.8625C49.8124 37.3046 49.7577 37.2954 49.7121 37.2772C49.6256 37.2453 49.5481 37.1861 49.498 37.1132C49.4479 37.0403 49.416 36.9492 49.416 36.8581C49.416 36.808 49.4251 36.7579 49.4433 36.7077L53.0789 26.6531C53.2429 26.202 53.5162 25.8057 53.867 25.5005C54.2087 25.2043 54.6279 24.9993 55.088 24.9264C55.6985 24.8262 56.2953 24.9538 56.7919 25.2408L56.7828 25.2499Z" fill="url(#paint11_radial_20683_3689)"/>
<g style="mix-blend-mode:soft-light">
<path fill-rule="evenodd" clip-rule="evenodd" d="M57.7213 26.644C57.3386 25.587 56.2588 24.9264 55.1108 25.1132C54.2452 25.2544 53.5436 25.8968 53.2429 26.7214L49.6074 36.7761C49.5436 36.9492 49.6711 37.1314 49.8579 37.1314H51.826C51.9399 37.1314 52.0356 37.0631 52.0766 36.9538L55.3613 27.8604C55.4069 27.7328 55.5846 27.7328 55.6301 27.8604L58.9103 36.9538C58.9468 37.0585 59.047 37.1314 59.1609 37.1314H61.1336C61.3158 37.1314 61.4479 36.9492 61.3841 36.7761L57.7213 26.6485V26.644ZM56.7828 25.2499C57.2839 25.546 57.6848 26.0107 57.8898 26.5802L61.5527 36.7077C61.5709 36.7579 61.58 36.8125 61.58 36.8581C61.58 36.9492 61.5481 37.0403 61.498 37.1132C61.4479 37.1861 61.375 37.2453 61.2839 37.2772C61.2338 37.2954 61.1837 37.3046 61.1336 37.3046H59.1609C59.0652 37.3046 58.9787 37.2727 58.9058 37.2225C58.8329 37.1724 58.7736 37.0995 58.7418 37.0084L55.498 28.0153L52.2497 37.0084C52.2178 37.095 52.1586 37.1724 52.0857 37.2225C52.0128 37.2727 51.9217 37.3046 51.8306 37.3046H49.8625C49.8124 37.3046 49.7577 37.2954 49.7121 37.2772C49.6256 37.2453 49.5481 37.1861 49.498 37.1132C49.4479 37.0403 49.416 36.9492 49.416 36.8581C49.416 36.808 49.4251 36.7579 49.4433 36.7077L53.0789 26.6531C53.2429 26.202 53.5162 25.8057 53.867 25.5005C54.2087 25.2043 54.6279 24.9993 55.088 24.9264C55.6985 24.8262 56.2953 24.9538 56.7919 25.2408L56.7828 25.2499Z" fill="#F8F8F8"/>
</g>
<path fill-rule="evenodd" clip-rule="evenodd" d="M51.3973 20.503C51.5476 20.503 51.6843 20.4438 51.7891 20.3481C51.8939 20.2525 51.9622 20.1203 51.9759 19.97C52.0488 19.15 52.4315 18.421 53.0055 17.8926C53.575 17.3732 54.3358 17.0543 55.1649 17.0543C55.9941 17.0543 56.7549 17.3732 57.3244 17.8926C57.8984 18.4165 58.2811 19.15 58.354 19.97C58.3677 20.1203 58.436 20.2525 58.5408 20.3481C58.6456 20.4438 58.7823 20.503 58.9326 20.503H65.5932C65.7618 20.503 65.9167 20.5714 66.026 20.6853C66.1353 20.7946 66.2082 20.9495 66.2082 21.1181V27.7787C66.2082 27.929 66.2675 28.0657 66.3631 28.1705C66.4588 28.2752 66.5909 28.3436 66.7413 28.3572C67.5613 28.4301 68.2902 28.8128 68.8187 29.3869C69.3381 29.9563 69.657 30.7172 69.657 31.5463C69.657 32.3755 69.3381 33.1363 68.8187 33.7058C68.2948 34.2798 67.5613 34.6625 66.7413 34.7354C66.5909 34.749 66.4588 34.8174 66.3631 34.9222C66.2675 35.027 66.2082 35.1636 66.2082 35.314V41.9746C66.2082 42.1431 66.1399 42.298 66.026 42.4074C65.9167 42.5167 65.7618 42.5896 65.5932 42.5896H44.7276C44.559 42.5896 44.4041 42.5213 44.2948 42.4074C44.1854 42.298 44.1126 42.1431 44.1126 41.9746V35.314C44.1126 35.2866 44.1217 35.2639 44.1399 35.2456C44.1536 35.2274 44.1809 35.2183 44.2082 35.2137C45.1513 35.1272 45.9941 34.6898 46.6 34.0292C47.1968 33.3732 47.5613 32.503 47.5613 31.5463C47.5613 30.5896 47.1968 29.7194 46.6 29.0634C45.9987 28.4028 45.1558 27.9609 44.2128 27.8789C44.1854 27.8789 44.1627 27.8652 44.1444 27.847C44.1308 27.8288 44.1171 27.806 44.1171 27.7787V21.1181C44.1171 20.9495 44.1854 20.7946 44.2993 20.6853C44.4087 20.5759 44.5636 20.503 44.7321 20.503H51.3927H51.3973ZM51.3973 20.2616H44.7367C44.2675 20.2616 43.8848 20.6443 43.8848 21.1135V27.7741C43.8848 27.9518 44.0214 28.0976 44.1946 28.1158C45.9531 28.2752 47.329 29.7513 47.329 31.5463C47.329 33.3413 45.9531 34.8219 44.1946 34.9768C44.0169 34.9905 43.8848 35.1408 43.8848 35.3185V41.9791C43.8848 42.4484 44.2675 42.8311 44.7367 42.8311H65.6023C66.0716 42.8311 66.4542 42.4484 66.4542 41.9791V35.3185C66.4542 35.1408 66.5909 34.9951 66.764 34.9768C68.5226 34.8174 69.8984 33.3413 69.8984 31.5463C69.8984 29.7513 68.5226 28.2707 66.764 28.1158C66.5864 28.1021 66.4542 27.9518 66.4542 27.7741V21.1135C66.4542 20.6443 66.0716 20.2616 65.6023 20.2616H58.9417C58.764 20.2616 58.6183 20.1249 58.6 19.9518C58.4406 18.1932 56.9645 16.8174 55.1695 16.8174C53.3745 16.8174 51.8939 18.1932 51.739 19.9518C51.7253 20.1295 51.575 20.2616 51.3973 20.2616Z" fill="url(#paint12_radial_20683_3689)"/>
</g>
<defs>
<radialGradient id="paint0_radial_20683_3689" cx="0" cy="0" r="1" gradientUnits="userSpaceOnUse" gradientTransform="translate(64.5737 1.58748) scale(54.6606 54.6606)">
<stop stop-color="#00E42A"/>
<stop offset="0.49" stop-color="#02B421"/>
<stop offset="0.72" stop-color="#048417"/>
<stop offset="0.86" stop-color="#06540E"/>
<stop offset="1" stop-color="#082404"/>
</radialGradient>
<radialGradient id="paint1_radial_20683_3689" cx="0" cy="0" r="1" gradientUnits="userSpaceOnUse" gradientTransform="translate(77.6071 -8.07973) scale(82.3872)">
<stop stop-color="#00E42A"/>
<stop offset="0.49" stop-color="#02B421"/>
<stop offset="0.72" stop-color="#048417"/>
<stop offset="0.86" stop-color="#06540E"/>
<stop offset="1" stop-color="#082404"/>
</radialGradient>
<radialGradient id="paint2_radial_20683_3689" cx="0" cy="0" r="1" gradientUnits="userSpaceOnUse" gradientTransform="translate(162.751 -61.4964) scale(177.08 177.08)">
<stop stop-color="#048417"/>
<stop offset="0.49" stop-color="#048417"/>
<stop offset="0.72" stop-color="#06540E"/>
<stop offset="0.86" stop-color="#082404"/>
<stop offset="1" stop-color="#0D131B"/>
</radialGradient>
<radialGradient id="paint3_radial_20683_3689" cx="0" cy="0" r="1" gradientUnits="userSpaceOnUse" gradientTransform="translate(13.6151 -2.7631) scale(11.0569)">
<stop stop-color="#048417"/>
<stop offset="0.49" stop-color="#048417"/>
<stop offset="0.72" stop-color="#06540E"/>
<stop offset="0.86" stop-color="#082404"/>
<stop offset="1" stop-color="#0D131B"/>
</radialGradient>
<radialGradient id="paint4_radial_20683_3689" cx="0" cy="0" r="1" gradientUnits="userSpaceOnUse" gradientTransform="translate(16.5774 -2.51253) scale(10.9795 10.9795)">
<stop stop-color="#048417"/>
<stop offset="0.49" stop-color="#048417"/>
<stop offset="0.72" stop-color="#06540E"/>
<stop offset="0.86" stop-color="#082404"/>
<stop offset="1" stop-color="#0D131B"/>
</radialGradient>
<radialGradient id="paint5_radial_20683_3689" cx="0" cy="0" r="1" gradientUnits="userSpaceOnUse" gradientTransform="translate(20.6767 -2.00683) scale(9.41686 9.41686)">
<stop stop-color="#048417"/>
<stop offset="0.49" stop-color="#048417"/>
<stop offset="0.72" stop-color="#06540E"/>
<stop offset="0.86" stop-color="#082404"/>
<stop offset="1" stop-color="#0D131B"/>
</radialGradient>
<radialGradient id="paint6_radial_20683_3689" cx="0" cy="0" r="1" gradientUnits="userSpaceOnUse" gradientTransform="translate(6.37775 46.2481) scale(78.2415 78.2415)">
<stop stop-color="#048417"/>
<stop offset="0.49" stop-color="#048417"/>
<stop offset="0.72" stop-color="#06540E"/>
<stop offset="0.86" stop-color="#082404"/>
<stop offset="1" stop-color="#0D131B"/>
</radialGradient>
<radialGradient id="paint7_radial_20683_3689" cx="0" cy="0" r="1" gradientUnits="userSpaceOnUse" gradientTransform="translate(109.903 -23.9662) scale(95.2665)">
<stop stop-color="#048417"/>
<stop offset="0.49" stop-color="#048417"/>
<stop offset="0.72" stop-color="#06540E"/>
<stop offset="0.86" stop-color="#082404"/>
<stop offset="1" stop-color="#0D131B"/>
</radialGradient>
<radialGradient id="paint8_radial_20683_3689" cx="0" cy="0" r="1" gradientUnits="userSpaceOnUse" gradientTransform="translate(71.0289 16.202) scale(41.0387 41.0387)">
<stop stop-color="#00E42A"/>
<stop offset="0.49" stop-color="#02B421"/>
<stop offset="0.72" stop-color="#048417"/>
<stop offset="0.86" stop-color="#06540E"/>
<stop offset="1" stop-color="#082404"/>
</radialGradient>
<radialGradient id="paint9_radial_20683_3689" cx="0" cy="0" r="1" gradientUnits="userSpaceOnUse" gradientTransform="translate(91.2293 -4.7362) scale(78.3827 78.3827)">
<stop stop-color="#00E42A"/>
<stop offset="0.49" stop-color="#02B421"/>
<stop offset="0.72" stop-color="#048417"/>
<stop offset="0.86" stop-color="#06540E"/>
<stop offset="1" stop-color="#082404"/>
</radialGradient>
<radialGradient id="paint10_radial_20683_3689" cx="0" cy="0" r="1" gradientUnits="userSpaceOnUse" gradientTransform="translate(59.6921 25.6749) rotate(129.72) scale(17.0005)">
<stop stop-color="#00E42A"/>
<stop offset="0.49" stop-color="#02B421"/>
<stop offset="0.72" stop-color="#048417"/>
<stop offset="0.86" stop-color="#06540E"/>
<stop offset="1" stop-color="#082404"/>
</radialGradient>
<radialGradient id="paint11_radial_20683_3689" cx="0" cy="0" r="1" gradientUnits="userSpaceOnUse" gradientTransform="translate(61.1797 27.6531) rotate(138.03) scale(15.3231 13.1341)">
<stop stop-color="#00E42A"/>
<stop offset="0.49" stop-color="#02B421"/>
<stop offset="0.72" stop-color="#048417"/>
<stop offset="0.86" stop-color="#06540E"/>
<stop offset="1" stop-color="#082404"/>
</radialGradient>
<radialGradient id="paint12_radial_20683_3689" cx="0" cy="0" r="1" gradientUnits="userSpaceOnUse" gradientTransform="translate(-14.466 93.9427) scale(118.456)">
<stop stop-color="#048417"/>
<stop offset="0.49" stop-color="#048417"/>
<stop offset="0.72" stop-color="#06540E"/>
<stop offset="0.86" stop-color="#082404"/>
<stop offset="1" stop-color="#0D131B"/>
</radialGradient>
<clipPath id="clip0_20683_3689">
<rect width="55.5672" height="44" fill="white" transform="translate(16.5 1)"/>
</clipPath>
</defs>
</svg>
