<svg width="80" height="47" viewBox="0 0 80 47" fill="none" xmlns="http://www.w3.org/2000/svg">
<g clip-path="url(#clip0_20683_3595)">
<path fill-rule="evenodd" clip-rule="evenodd" d="M45.5336 1.44447L71.7605 16.9318C72.3975 17.305 72.7558 17.942 72.7558 18.6786C72.7558 19.4151 72.3925 20.0472 71.7605 20.4254L45.5336 35.9127C42.269 37.8386 38.4967 37.8386 35.232 35.9127L9.00509 20.4254C8.36808 20.0521 8.00977 19.4201 8.00977 18.6836C8.00977 17.947 8.37306 17.315 9.00509 16.9368L35.227 1.44447C38.4917 -0.48149 42.264 -0.48149 45.5287 1.44447H45.5336Z" fill="url(#paint0_radial_20683_3595)"/>
<path fill-rule="evenodd" clip-rule="evenodd" d="M17.0473 25.1782L9.00509 20.4255C8.38301 20.0573 8.0247 19.4452 8.00977 18.7285V27.9154C8.0247 28.632 8.38301 29.2442 9.00509 29.6124L35.232 45.0997C38.4967 47.0257 42.269 47.0257 45.5336 45.0997L71.7605 29.6124C72.3826 29.2442 72.7409 28.632 72.7558 27.9154V18.7285C72.7409 19.4452 72.3826 20.0623 71.7605 20.4255L63.7183 25.1782L45.5386 35.9178C42.2739 37.8438 38.4967 37.8438 35.237 35.9178L17.0573 25.1782H17.0473Z" fill="url(#paint1_radial_20683_3595)"/>
<path fill-rule="evenodd" clip-rule="evenodd" d="M45.5336 1.44447L71.7605 16.9318C72.3975 17.305 72.7558 17.942 72.7558 18.6786C72.7558 19.4151 72.3925 20.0472 71.7605 20.4254L45.5336 35.9127C42.269 37.8386 38.4967 37.8386 35.232 35.9127L9.00509 20.4254C8.36808 20.0521 8.00977 19.4201 8.00977 18.6836C8.00977 17.947 8.37306 17.315 9.00509 16.9368L35.227 1.44447C38.4917 -0.48149 42.264 -0.48149 45.5287 1.44447H45.5336ZM71.4968 17.3697L45.2748 1.88241C43.7221 0.966712 42.05 0.508861 40.3828 0.508861C38.7156 0.508861 37.0385 0.966712 35.4908 1.88241L9.26388 17.3697C9.025 17.514 8.83589 17.7032 8.71147 17.9221C8.58706 18.1411 8.51738 18.3999 8.51738 18.6836C8.51738 18.9672 8.58706 19.221 8.71147 19.445C8.83589 19.6639 9.025 19.8531 9.26388 19.9974L35.4908 35.4847C37.0435 36.4004 38.7156 36.8582 40.3828 36.8582C42.05 36.8582 43.7271 36.4004 45.2748 35.4847L71.5017 19.9974C71.7406 19.8531 71.9297 19.6639 72.0541 19.445C72.1786 19.226 72.2482 18.9672 72.2482 18.6836C72.2482 18.3999 72.1786 18.1461 72.0541 17.9221C71.9297 17.7032 71.7406 17.514 71.5017 17.3697H71.4968Z" fill="url(#paint2_radial_20683_3595)"/>
<g style="mix-blend-mode:soft-light">
<path fill-rule="evenodd" clip-rule="evenodd" d="M45.5239 1.44447L71.7508 16.9318C72.3878 17.305 72.7461 17.942 72.7461 18.6786C72.7461 19.4151 72.3828 20.0472 71.7508 20.4254L45.5239 35.9127C42.2592 37.8386 38.4869 37.8386 35.2222 35.9127L8.99533 20.4254C8.35832 20.0521 8 19.4151 8 18.6786C8 17.942 8.36329 17.31 8.99533 16.9318L35.2222 1.44447C38.4869 -0.48149 42.2592 -0.48149 45.5239 1.44447ZM71.492 17.3697L45.2651 1.88241C43.7124 0.966712 42.0402 0.508861 40.373 0.508861C38.7059 0.508861 37.0287 0.966712 35.481 1.88241L9.25411 17.3697C9.01523 17.514 8.82612 17.7032 8.70171 17.9221C8.57729 18.1411 8.50762 18.3999 8.50762 18.6836C8.50762 18.9672 8.57729 19.221 8.70171 19.445C8.82612 19.6639 9.01523 19.8531 9.25411 19.9974L35.481 35.4847C37.0337 36.4004 38.7059 36.8582 40.373 36.8582C42.0402 36.8582 43.7173 36.4004 45.2651 35.4847L71.492 19.9974C71.7309 19.8531 71.92 19.6639 72.0444 19.445C72.1688 19.226 72.2385 18.9672 72.2385 18.6836C72.2385 18.3999 72.1688 18.1461 72.0444 17.9221C71.92 17.7032 71.7309 17.514 71.492 17.3697Z" fill="#F8F8F8"/>
</g>
<path fill-rule="evenodd" clip-rule="evenodd" d="M45.5336 45.1044C42.269 47.0303 38.4967 47.0303 35.232 45.1044L9.00509 29.6121C8.38301 29.2438 8.0247 28.6317 8.00977 27.915V28.567C8.0247 29.2836 8.38301 29.8957 9.00509 30.264L35.232 45.7513C38.4967 47.6773 42.269 47.6773 45.5336 45.7513L71.7605 30.264C72.3826 29.8957 72.7409 29.2836 72.7558 28.567V27.915C72.7409 28.6317 72.3826 29.2438 71.7605 29.6121L45.5336 45.0994V45.1044Z" fill="url(#paint3_radial_20683_3595)"/>
<path fill-rule="evenodd" clip-rule="evenodd" d="M10.8184 25.875L11.9381 26.5369V27.9204L10.8184 27.2585V25.875Z" fill="url(#paint4_radial_20683_3595)"/>
<path fill-rule="evenodd" clip-rule="evenodd" d="M10.9313 25.6757L12.1655 26.4023V28.3133L10.5879 27.3827V25.4717L10.9313 25.6757ZM10.8168 25.8748L11.9415 26.5367V27.9202L10.8168 27.2583V25.8748Z" fill="url(#paint5_radial_20683_3595)"/>
<path fill-rule="evenodd" clip-rule="evenodd" d="M47.4995 14.7521C48.0867 13.7269 47.4995 12.5275 46.0264 11.9054C44.9116 11.4326 43.4933 11.4376 42.3586 11.8457L28.5335 16.7925C28.2946 16.8771 28.2647 17.0961 28.4738 17.2205L30.6983 18.5194C30.8227 18.594 31.0069 18.609 31.1512 18.5542L43.6575 14.0802C43.8317 14.0205 44.0307 14.135 43.9611 14.2594L38.8899 23.078C38.8301 23.1825 38.8749 23.297 39.0043 23.3716L41.2388 24.6755C41.4479 24.7949 41.7664 24.7501 41.8659 24.5809L47.5094 14.7521H47.4995Z" fill="url(#paint6_radial_20683_3595)"/>
<path fill-rule="evenodd" clip-rule="evenodd" d="M47.2456 14.6824C47.5194 14.2046 47.5194 13.6871 47.2755 13.2193C47.0366 12.7564 46.5589 12.3434 45.882 12.0547C45.3794 11.8407 44.8071 11.7362 44.2298 11.7263C43.6326 11.7163 43.0304 11.8109 42.493 12.005L28.6679 16.9517L28.638 16.9716C28.638 16.9716 28.6131 17.0015 28.6081 17.0164C28.6081 17.0314 28.6081 17.0513 28.6231 17.0612L28.6529 17.0861L30.8775 18.385C30.8775 18.385 30.9223 18.4049 30.9422 18.4049C30.9671 18.4049 30.9919 18.4049 31.0118 18.395L43.5181 13.921C43.6525 13.8712 43.8018 13.8712 43.9262 13.906C43.981 13.921 44.0307 13.9409 44.0755 13.9658C44.1153 13.9906 44.1552 14.0205 44.185 14.0553C44.2497 14.135 44.2696 14.2295 44.2149 14.3291L39.1437 23.1477C39.1437 23.1477 39.1337 23.1825 39.1437 23.1974C39.1487 23.2124 39.1636 23.2273 39.1835 23.2372L41.418 24.5411L41.4528 24.556C41.4528 24.556 41.5026 24.561 41.5275 24.556C41.5524 24.556 41.5723 24.5461 41.5872 24.5312L41.6071 24.5063L47.2506 14.6774L47.2456 14.6824ZM47.4995 14.7521C48.0867 13.7269 47.4995 12.5275 46.0264 11.9054C44.9116 11.4326 43.4933 11.4376 42.3586 11.8457L28.5335 16.7925C28.2946 16.8771 28.2647 17.0961 28.4738 17.2205L30.6983 18.5194C30.8227 18.594 31.0069 18.609 31.1512 18.5542L43.6575 14.0802C43.8317 14.0205 44.0307 14.135 43.9611 14.2594L38.8899 23.073C38.8301 23.1775 38.8749 23.292 39.0043 23.3666L41.2388 24.6705C41.4479 24.7899 41.7664 24.7452 41.8659 24.576L47.5094 14.7471L47.4995 14.7521Z" fill="url(#paint7_radial_20683_3595)"/>
</g>
<defs>
<radialGradient id="paint0_radial_20683_3595" cx="0" cy="0" r="1" gradientUnits="userSpaceOnUse" gradientTransform="translate(20.0284 1.09113) scale(53.0311 53.0311)">
<stop stop-color="#00E42A"/>
<stop offset="0.49" stop-color="#02B421"/>
<stop offset="0.72" stop-color="#048417"/>
<stop offset="0.86" stop-color="#06540E"/>
<stop offset="1" stop-color="#082404"/>
</radialGradient>
<radialGradient id="paint1_radial_20683_3595" cx="0" cy="0" r="1" gradientUnits="userSpaceOnUse" gradientTransform="translate(3.43624 1.6686) scale(69.1504 69.1504)">
<stop stop-color="#048417"/>
<stop offset="0.49" stop-color="#048417"/>
<stop offset="0.72" stop-color="#06540E"/>
<stop offset="0.86" stop-color="#082404"/>
<stop offset="1" stop-color="#0D131B"/>
</radialGradient>
<radialGradient id="paint2_radial_20683_3595" cx="0" cy="0" r="1" gradientUnits="userSpaceOnUse" gradientTransform="translate(13.1307 9.30756) scale(54.2404 54.2404)">
<stop stop-color="#00E42A"/>
<stop offset="0.49" stop-color="#02B421"/>
<stop offset="0.72" stop-color="#048417"/>
<stop offset="0.86" stop-color="#06540E"/>
<stop offset="1" stop-color="#082404"/>
</radialGradient>
<radialGradient id="paint3_radial_20683_3595" cx="0" cy="0" r="1" gradientUnits="userSpaceOnUse" gradientTransform="translate(-18.2334 -17.5506) rotate(30) scale(84.7756)">
<stop stop-color="#048417"/>
<stop offset="0.49" stop-color="#048417"/>
<stop offset="0.72" stop-color="#06540E"/>
<stop offset="0.86" stop-color="#082404"/>
<stop offset="1" stop-color="#0D131B"/>
</radialGradient>
<radialGradient id="paint4_radial_20683_3595" cx="0" cy="0" r="1" gradientUnits="userSpaceOnUse" gradientTransform="translate(13.6646 29.1622) rotate(61.1) scale(7.57165 7.57166)">
<stop stop-color="#00E42A"/>
<stop offset="0.49" stop-color="#02B421"/>
<stop offset="0.72" stop-color="#048417"/>
<stop offset="0.86" stop-color="#06540E"/>
<stop offset="1" stop-color="#082404"/>
</radialGradient>
<radialGradient id="paint5_radial_20683_3595" cx="0" cy="0" r="1" gradientUnits="userSpaceOnUse" gradientTransform="translate(64.6802 26.0591) rotate(-121.58) scale(5.52083)">
<stop stop-color="#00E42A"/>
<stop offset="0.49" stop-color="#02B421"/>
<stop offset="0.72" stop-color="#048417"/>
<stop offset="0.86" stop-color="#06540E"/>
<stop offset="1" stop-color="#082404"/>
</radialGradient>
<radialGradient id="paint6_radial_20683_3595" cx="0" cy="0" r="1" gradientUnits="userSpaceOnUse" gradientTransform="translate(-4.16085 -2.24047) scale(58.1501)">
<stop stop-color="#048417"/>
<stop offset="0.49" stop-color="#048417"/>
<stop offset="0.72" stop-color="#06540E"/>
<stop offset="0.86" stop-color="#082404"/>
<stop offset="1" stop-color="#0D131B"/>
</radialGradient>
<radialGradient id="paint7_radial_20683_3595" cx="0" cy="0" r="1" gradientUnits="userSpaceOnUse" gradientTransform="translate(101.439 21.8006) rotate(-150) scale(61.5707 61.5707)">
<stop stop-color="#048417"/>
<stop offset="0.49" stop-color="#048417"/>
<stop offset="0.72" stop-color="#06540E"/>
<stop offset="0.86" stop-color="#082404"/>
<stop offset="1" stop-color="#0D131B"/>
</radialGradient>
<clipPath id="clip0_20683_3595">
<rect width="80" height="47" fill="white"/>
</clipPath>
</defs>
</svg>
