<svg width="45" height="8" viewBox="0 0 45 8" fill="none" xmlns="http://www.w3.org/2000/svg">
<rect x="0.755859" width="44" height="8" rx="2" fill="#1C73FF"/>
<path d="M4.10786 6.036C3.51186 6.036 3.00786 5.836 2.59586 5.436C2.18386 5.036 1.97786 4.528 1.97786 3.912C1.97786 3.292 2.18386 2.782 2.59586 2.382C3.00786 1.978 3.51186 1.776 4.10786 1.776C4.55186 1.776 4.94586 1.886 5.28986 2.106C5.63786 2.322 5.88986 2.63 6.04586 3.03H5.22386C4.99986 2.61 4.62786 2.4 4.10786 2.4C3.68786 2.4 3.34386 2.538 3.07586 2.814C2.81186 3.09 2.67986 3.456 2.67986 3.912C2.67986 4.364 2.81186 4.728 3.07586 5.004C3.34386 5.28 3.68786 5.418 4.10786 5.418C4.62786 5.418 4.99986 5.208 5.22386 4.788H6.04586C5.88986 5.188 5.63786 5.496 5.28986 5.712C4.94586 5.928 4.55186 6.036 4.10786 6.036ZM9.05448 5.178C9.25448 4.978 9.35448 4.7 9.35448 4.344C9.35448 3.988 9.25648 3.712 9.06048 3.516C8.86848 3.316 8.63448 3.216 8.35848 3.216C8.08248 3.216 7.85048 3.316 7.66248 3.516C7.47448 3.712 7.38048 3.99 7.38048 4.35C7.38048 4.706 7.47248 4.984 7.65648 5.184C7.84048 5.38 8.06848 5.478 8.34048 5.478C8.61648 5.478 8.85448 5.378 9.05448 5.178ZM8.34048 6.054C7.86048 6.054 7.46448 5.898 7.15248 5.586C6.84048 5.27 6.68448 4.858 6.68448 4.35C6.68448 3.838 6.84448 3.426 7.16448 3.114C7.48848 2.798 7.89048 2.64 8.37048 2.64C8.85048 2.64 9.25048 2.798 9.57048 3.114C9.89448 3.426 10.0565 3.836 10.0565 4.344C10.0565 4.852 9.89048 5.264 9.55848 5.58C9.23048 5.896 8.82448 6.054 8.34048 6.054ZM11.4767 2.694V3.216C11.6967 2.832 12.0487 2.64 12.5327 2.64C12.7887 2.64 13.0167 2.7 13.2167 2.82C13.4167 2.94 13.5687 3.114 13.6727 3.342C13.7887 3.122 13.9487 2.95 14.1527 2.826C14.3607 2.702 14.5947 2.64 14.8547 2.64C15.2347 2.64 15.5467 2.764 15.7907 3.012C16.0347 3.256 16.1567 3.602 16.1567 4.05V6H15.4727V4.152C15.4727 3.856 15.3987 3.63 15.2507 3.474C15.1027 3.314 14.9007 3.234 14.6447 3.234C14.3887 3.234 14.1867 3.314 14.0387 3.474C13.8907 3.63 13.8167 3.856 13.8167 4.152V6H13.1387V4.152C13.1387 3.856 13.0647 3.63 12.9167 3.474C12.7687 3.314 12.5667 3.234 12.3107 3.234C12.0547 3.234 11.8507 3.314 11.6987 3.474C11.5507 3.63 11.4767 3.856 11.4767 4.152V6H10.7927V2.694H11.4767ZM17.867 1.818C17.867 1.942 17.825 2.046 17.741 2.13C17.657 2.214 17.553 2.256 17.429 2.256C17.309 2.256 17.207 2.214 17.123 2.13C17.039 2.046 16.997 1.942 16.997 1.818C16.997 1.694 17.039 1.59 17.123 1.506C17.207 1.422 17.309 1.38 17.429 1.38C17.553 1.38 17.657 1.422 17.741 1.506C17.825 1.59 17.867 1.694 17.867 1.818ZM17.087 6V2.694H17.771V6H17.087ZM19.4131 2.694V3.216C19.6331 2.832 19.9851 2.64 20.4691 2.64C20.8411 2.64 21.1471 2.764 21.3871 3.012C21.6311 3.26 21.7531 3.606 21.7531 4.05V6H21.0751V4.152C21.0751 3.856 21.0011 3.63 20.8531 3.474C20.7051 3.314 20.5031 3.234 20.2471 3.234C19.9911 3.234 19.7871 3.314 19.6351 3.474C19.4871 3.63 19.4131 3.856 19.4131 4.152V6H18.7291V2.694H19.4131ZM24.0175 6.054C23.5775 6.054 23.2075 5.894 22.9075 5.574C22.6075 5.25 22.4575 4.838 22.4575 4.338C22.4575 3.834 22.6055 3.426 22.9015 3.114C23.2015 2.798 23.5735 2.64 24.0175 2.64C24.2775 2.64 24.5055 2.7 24.7015 2.82C24.9015 2.936 25.0555 3.09 25.1635 3.282V2.694H25.8535V6.054C25.8535 6.518 25.7095 6.896 25.4215 7.188C25.1375 7.484 24.7575 7.632 24.2815 7.632C23.8055 7.632 23.4195 7.526 23.1235 7.314C22.8275 7.106 22.6595 6.822 22.6195 6.462H23.2975C23.3495 6.634 23.4595 6.772 23.6275 6.876C23.7995 6.984 24.0135 7.038 24.2695 7.038C24.5255 7.038 24.7375 6.954 24.9055 6.786C25.0775 6.618 25.1635 6.374 25.1635 6.054V5.382C25.0515 5.586 24.8975 5.75 24.7015 5.874C24.5055 5.994 24.2775 6.054 24.0175 6.054ZM24.8635 5.16C25.0635 4.956 25.1635 4.684 25.1635 4.344C25.1635 4.004 25.0635 3.734 24.8635 3.534C24.6675 3.334 24.4335 3.234 24.1615 3.234C23.8895 3.234 23.6535 3.332 23.4535 3.528C23.2575 3.724 23.1595 3.992 23.1595 4.332C23.1595 4.672 23.2575 4.946 23.4535 5.154C23.6535 5.358 23.8895 5.46 24.1615 5.46C24.4335 5.46 24.6675 5.36 24.8635 5.16ZM29.9668 2.334C29.7628 2.334 29.5968 2.386 29.4688 2.49C29.3408 2.594 29.2768 2.746 29.2768 2.946C29.2768 3.142 29.3528 3.292 29.5048 3.396C29.6568 3.5 29.8408 3.576 30.0568 3.624C30.2728 3.672 30.4888 3.728 30.7048 3.792C30.9208 3.852 31.1048 3.966 31.2568 4.134C31.4088 4.302 31.4848 4.54 31.4848 4.848C31.4848 5.156 31.3548 5.432 31.0948 5.676C30.8348 5.92 30.4868 6.042 30.0508 6.042C29.6148 6.042 29.2608 5.94 28.9888 5.736C28.7168 5.532 28.5808 5.25 28.5808 4.89H29.3128C29.3288 5.074 29.3968 5.22 29.5168 5.328C29.6368 5.436 29.8128 5.49 30.0448 5.49C30.2768 5.49 30.4588 5.43 30.5908 5.31C30.7268 5.19 30.7948 5.048 30.7948 4.884C30.7948 4.72 30.7528 4.592 30.6688 4.5C30.5888 4.408 30.4828 4.34 30.3508 4.296C30.2228 4.248 30.0808 4.206 29.9248 4.17C29.7688 4.134 29.6108 4.092 29.4508 4.044C29.2948 3.996 29.1508 3.934 29.0188 3.858C28.8908 3.782 28.7848 3.672 28.7008 3.528C28.6208 3.38 28.5808 3.2 28.5808 2.988C28.5808 2.624 28.7108 2.332 28.9708 2.112C29.2348 1.888 29.5748 1.776 29.9908 1.776C30.4108 1.776 30.7448 1.872 30.9928 2.064C31.2448 2.256 31.3848 2.534 31.4128 2.898H30.6568C30.6408 2.738 30.5728 2.604 30.4528 2.496C30.3328 2.388 30.1708 2.334 29.9668 2.334ZM34.4999 5.178C34.6999 4.978 34.7999 4.7 34.7999 4.344C34.7999 3.988 34.7019 3.712 34.5059 3.516C34.3139 3.316 34.0799 3.216 33.8039 3.216C33.5279 3.216 33.2959 3.316 33.1079 3.516C32.9199 3.712 32.8259 3.99 32.8259 4.35C32.8259 4.706 32.9179 4.984 33.1019 5.184C33.2859 5.38 33.5139 5.478 33.7859 5.478C34.0619 5.478 34.2999 5.378 34.4999 5.178ZM33.7859 6.054C33.3059 6.054 32.9099 5.898 32.5979 5.586C32.2859 5.27 32.1299 4.858 32.1299 4.35C32.1299 3.838 32.2899 3.426 32.6099 3.114C32.9339 2.798 33.3359 2.64 33.8159 2.64C34.2959 2.64 34.6959 2.798 35.0159 3.114C35.3399 3.426 35.5019 3.836 35.5019 4.344C35.5019 4.852 35.3359 5.264 35.0039 5.58C34.6759 5.896 34.2699 6.054 33.7859 6.054ZM38.386 5.178C38.586 4.978 38.686 4.7 38.686 4.344C38.686 3.988 38.588 3.712 38.392 3.516C38.2 3.316 37.966 3.216 37.69 3.216C37.414 3.216 37.182 3.316 36.994 3.516C36.806 3.712 36.712 3.99 36.712 4.35C36.712 4.706 36.804 4.984 36.988 5.184C37.172 5.38 37.4 5.478 37.672 5.478C37.948 5.478 38.186 5.378 38.386 5.178ZM37.672 6.054C37.192 6.054 36.796 5.898 36.484 5.586C36.172 5.27 36.016 4.858 36.016 4.35C36.016 3.838 36.176 3.426 36.496 3.114C36.82 2.798 37.222 2.64 37.702 2.64C38.182 2.64 38.582 2.798 38.902 3.114C39.226 3.426 39.388 3.836 39.388 4.344C39.388 4.852 39.222 5.264 38.89 5.58C38.562 5.896 38.156 6.054 37.672 6.054ZM40.8082 2.694V3.216C41.0282 2.832 41.3802 2.64 41.8642 2.64C42.2362 2.64 42.5422 2.764 42.7822 3.012C43.0262 3.26 43.1482 3.606 43.1482 4.05V6H42.4702V4.152C42.4702 3.856 42.3962 3.63 42.2482 3.474C42.1002 3.314 41.8982 3.234 41.6422 3.234C41.3862 3.234 41.1822 3.314 41.0302 3.474C40.8822 3.63 40.8082 3.856 40.8082 4.152V6H40.1242V2.694H40.8082Z" fill="white"/>
</svg>
