<svg width="300" height="106" viewBox="0 0 300 106" fill="none" xmlns="http://www.w3.org/2000/svg">
<path fill-rule="evenodd" clip-rule="evenodd" d="M69.6 14.7195C66.33 5.66953 57.06 0.0195276 47.24 1.60953C39.82 2.80953 33.8 8.30953 31.25 15.3795L0.14002 101.46C-0.39998 102.94 0.700019 104.51 2.28002 104.51H19.12C20.08 104.51 20.93 103.91 21.26 103.01L49.4 25.1395C49.79 24.0595 51.31 24.0695 51.7 25.1395L79.79 103C80.11 103.9 80.97 104.5 81.93 104.5H98.83C100.41 104.5 101.51 102.94 100.97 101.45L69.62 14.6995L69.6 14.7195ZM247.02 85.4995C229.07 85.4995 214.52 70.9495 214.52 52.9995C214.52 35.0495 229.07 20.4995 247.02 20.4995C264.97 20.4995 279.52 35.0495 279.52 52.9995C279.52 70.9495 264.97 85.4995 247.02 85.4995ZM247.02 0.0195312C217.76 0.0195312 194.04 23.7395 194.04 52.9995C194.04 82.2595 217.76 105.98 247.02 105.98C276.28 105.98 300 82.2595 300 52.9995C300 23.7395 276.28 0.0195312 247.02 0.0195312ZM188.53 34.8195C188.03 16.0395 172.06 1.33952 153.27 1.33952H109.47C108.31 1.33952 107.36 2.27952 107.36 3.44952V102.41C107.36 103.57 108.3 104.52 109.47 104.52H127.36C128.52 104.52 129.47 103.58 129.47 102.41V21.5595C129.47 20.9795 129.94 20.5095 130.52 20.5095H149.95C158.07 20.5095 165.17 26.6395 165.69 34.7495C166.27 43.6295 159.23 51.0195 150.47 51.0195H148.88C148.15 51.0195 147.64 51.7395 147.89 52.4295L166.18 103.13C166.48 103.96 167.27 104.52 168.16 104.52H185.42C186.88 104.52 187.9 103.07 187.4 101.7L173.79 63.9795C182.94 57.5995 188.84 46.8995 188.52 34.8295L188.53 34.8195Z" fill="#00E42A"/>
</svg>
