<svg width="102" height="20" viewBox="0 0 102 20" fill="none" xmlns="http://www.w3.org/2000/svg">
<g clip-path="url(#clip0_21254_1964)">
<path d="M44.687 19.4532C42.838 19.4532 41.251 19.0362 39.924 18.2032C38.597 17.3702 37.577 16.2482 36.864 14.8382C36.15 13.4282 35.793 11.8632 35.793 10.1412C35.793 8.42019 36.158 6.85519 36.891 5.44419C37.623 4.03519 38.661 2.91319 40.006 2.07919C41.351 1.24619 42.93 0.829186 44.741 0.829186C46.7 0.829186 48.397 1.31019 49.833 2.27119C51.27 3.23219 52.327 4.47419 53.004 5.99319H50.753C50.204 5.02319 49.439 4.25419 48.46 3.68619C47.481 3.11919 46.296 2.83519 44.905 2.83519C43.441 2.83519 42.179 3.16019 41.117 3.81019C40.056 4.46019 39.245 5.33519 38.688 6.43319C38.129 7.53219 37.85 8.76819 37.85 10.1412C37.85 11.5142 38.125 12.7282 38.674 13.8362C39.222 14.9432 40.023 15.8232 41.075 16.4732C42.128 17.1232 43.386 17.4482 44.85 17.4482C45.948 17.4482 46.987 17.2102 47.965 16.7342C48.944 16.2582 49.74 15.5712 50.354 14.6742C50.967 13.7772 51.274 12.6962 51.274 11.4322H44.63V9.56419H53.168V19.2332H51.274V16.0202C50.889 16.6062 50.395 17.1592 49.791 17.6822C49.187 18.2042 48.46 18.6292 47.608 18.9592C46.757 19.2882 45.783 19.4532 44.685 19.4532H44.687ZM62.014 19.4532C60.677 19.4532 59.511 19.1372 58.514 18.5052C57.516 17.8742 56.743 17.0182 56.194 15.9372C55.646 14.8572 55.371 13.6672 55.371 12.3672C55.371 11.0672 55.646 9.85319 56.194 8.78219C56.743 7.71019 57.517 6.85919 58.514 6.22719C59.511 5.59519 60.677 5.27919 62.014 5.27919C63.148 5.27919 64.123 5.49919 64.937 5.93919C65.751 6.37819 66.415 6.97419 66.927 7.72419V5.50019H68.986V19.2342H66.927V17.0362C66.415 17.7692 65.751 18.3552 64.937 18.7942C64.123 19.2342 63.148 19.4542 62.014 19.4542V19.4532ZM62.288 17.5852C63.313 17.5852 64.178 17.3472 64.883 16.8702C65.587 16.3942 66.122 15.7582 66.489 14.9622C66.854 14.1652 67.038 13.3002 67.038 12.3662C67.038 11.4322 66.854 10.5432 66.489 9.75619C66.122 8.96919 65.587 8.33719 64.883 7.86119C64.178 7.38519 63.313 7.14719 62.288 7.14719C61.263 7.14719 60.412 7.38519 59.68 7.86119C58.948 8.33719 58.39 8.96919 58.006 9.75619C57.621 10.5432 57.429 11.4132 57.429 12.3662C57.429 13.3182 57.621 14.1652 58.006 14.9622C58.391 15.7592 58.948 16.3952 59.68 16.8702C60.412 17.3472 61.282 17.5852 62.288 17.5852ZM71.962 19.2332V0.00518597H74.021V19.2332H71.962ZM75.436 19.2332L80.735 12.1472L75.766 5.49919H78.402L81.943 10.6902L85.457 5.49919H88.092L83.124 12.1472L88.449 19.2332H85.813L81.943 13.6302L78.044 19.2332H75.436ZM95.27 19.4532C93.879 19.4532 92.662 19.1372 91.619 18.5052C90.576 17.8742 89.766 17.0182 89.19 15.9372C88.613 14.8572 88.325 13.6672 88.325 12.3672C88.325 11.0672 88.6 9.85319 89.148 8.78219C89.697 7.71019 90.484 6.85919 91.509 6.22719C92.534 5.59519 93.742 5.27919 95.133 5.27919C96.524 5.27919 97.754 5.59519 98.77 6.22719C99.786 6.85919 100.568 7.71019 101.117 8.78219C101.666 9.85319 101.941 11.0472 101.941 12.3672V13.1902H90.438C90.548 13.9972 90.809 14.7332 91.221 15.4012C91.633 16.0702 92.186 16.6012 92.882 16.9942C93.577 17.3882 94.383 17.5852 95.298 17.5852C96.268 17.5852 97.082 17.3702 97.741 16.9402C98.4 16.5092 98.911 15.9552 99.278 15.2782H101.529C101.053 16.5052 100.298 17.5072 99.264 18.2862C98.23 19.0642 96.899 19.4532 95.27 19.4532ZM90.466 11.2672H99.799C99.616 10.0962 99.122 9.11619 98.317 8.32819C97.511 7.54119 96.449 7.14719 95.132 7.14719C93.815 7.14719 92.757 7.54119 91.962 8.32819C91.165 9.11619 90.667 10.0962 90.466 11.2672ZM21.605 2.36219L2.093 13.6342L20.221 0.247186C20.828 -0.200814 21.69 -0.020814 22.067 0.633186C22.416 1.23919 22.209 2.01319 21.604 2.36319L21.605 2.36219ZM24.393 12.1182C24.131 11.6642 23.551 11.5092 23.098 11.7712L10.18 19.2332L23.937 13.4672C24.464 13.2472 24.678 12.6132 24.393 12.1182ZM30.91 2.11519C30.364 1.16819 29.133 0.875186 28.22 1.47419L0 19.9722L30.119 4.76719C31.095 4.27419 31.457 3.06219 30.91 2.11519Z" fill="white" fill-opacity="0.7"/>
</g>
<defs>
<clipPath id="clip0_21254_1964">
<rect width="102" height="20" fill="white"/>
</clipPath>
</defs>
</svg>
