<svg width="61" height="54" viewBox="0 0 61 54" fill="none" xmlns="http://www.w3.org/2000/svg">
<path d="M55.7277 36.0715L56.9265 40.3857C57.5255 42.4233 56.3274 44.4609 54.4094 44.9397L26.3646 52.9699C24.327 53.5689 22.2901 52.3709 21.6911 50.4528L20.493 46.1385C22.2901 45.4193 23.2492 43.5019 22.6501 41.7041C22.1706 39.9062 20.2533 38.7081 18.4554 39.0674L16.8974 33.9144C16.2983 31.8768 17.4964 29.8399 19.4145 29.3604L47.4585 21.3309C49.4961 20.7319 51.5337 21.93 52.132 23.8481L53.5705 29.0011" fill="url(#paint0_radial_21497_1895)"/>
<path d="M56.8073 20.6113L59.6837 26.6038C61.002 29.2405 59.9234 32.4762 57.1666 33.7945L19.5343 52.251C16.8977 53.5693 13.662 52.4907 12.3437 49.7338L9.46727 43.7413C11.7446 42.3034 12.5834 39.3068 11.3846 36.7904C10.1858 34.2733 7.31015 33.1947 4.67279 34.0335L1.31759 27.0826C-0.000732243 24.446 1.07783 21.2103 3.83471 19.8913L41.467 1.43479C44.1036 0.116473 47.3393 1.19503 48.6576 3.95119L52.133 11.0223C49.8557 12.4602 49.0176 15.4568 50.2157 17.9732C51.4137 20.3715 54.2901 21.5703 56.8073 20.6113Z" fill="url(#paint1_radial_21497_1895)"/>
<g style="mix-blend-mode:soft-light">
<path d="M41.6279 1.75684C44.0836 0.529003 47.1011 1.53092 48.333 4.10645L48.335 4.11035L51.6709 10.8994C49.5116 12.446 48.717 15.3579 49.7773 17.876L49.8906 18.1279L49.8936 18.1338C51.121 20.591 54.0022 21.8723 56.6201 21.0547L59.3594 26.7598L59.3613 26.7646C60.5891 29.2202 59.5877 32.2377 57.0117 33.4697L57.0078 33.4717L19.376 51.9277L19.373 51.9287C16.9174 53.1564 13.8999 52.1543 12.668 49.5781L9.92578 43.8652C12.1596 42.2674 12.9362 39.2101 11.71 36.6357C10.472 34.0364 7.57231 32.8866 4.86426 33.6035L1.6416 26.9258L1.63965 26.9219L1.53125 26.6895C0.476365 24.2788 1.4945 21.4099 3.99023 20.2158L3.99316 20.2148L41.625 1.75781L41.6279 1.75684Z" stroke="white" stroke-width="0.72"/>
</g>
<path d="M21.452 45.0591C20.9725 45.0591 20.6132 44.8194 20.3734 44.3398L19.8939 43.2613C19.6542 42.6615 19.8939 41.943 20.493 41.7032C21.092 41.4634 21.8113 41.7032 22.051 42.3022L22.5306 43.3808C22.7703 43.9798 22.5306 44.6991 21.9315 44.9389C21.8113 45.0591 21.6918 45.0591 21.452 45.0591ZM18.8154 39.6656C18.3358 39.6656 17.9766 39.4258 17.7368 38.9463L17.2573 37.8678C17.0175 37.2687 17.2573 36.5494 17.8563 36.3097C18.4554 36.0699 19.1746 36.3097 19.4144 36.9087L19.8939 37.9873C20.1337 38.5863 19.8939 39.3056 19.2949 39.5454C19.1746 39.6656 19.0544 39.6656 18.8154 39.6656ZM16.1787 34.3923C15.6992 34.3923 15.3399 34.1526 15.1002 33.673L14.6206 32.5945C14.3809 31.9954 14.6206 31.2762 15.2197 31.0364C15.8187 30.7966 16.538 31.0364 16.7778 31.6354L17.2573 32.714C17.497 33.313 17.2573 34.0323 16.6582 34.2721C16.538 34.2728 16.4185 34.3923 16.1787 34.3923ZM13.6616 28.9995C13.1821 28.9995 12.8228 28.7598 12.583 28.2802L12.1035 27.2017C11.8638 26.6026 12.1035 25.8834 12.7026 25.6436C13.3016 25.4038 14.0209 25.6436 14.2606 26.2426L14.7402 27.3212C14.9799 27.9202 14.7402 28.6395 14.1411 28.8793C14.0209 28.8793 13.7811 28.9995 13.6616 28.9995ZM11.025 23.606C10.5454 23.606 10.1862 23.3662 9.9464 22.8867L9.46688 21.8082C9.22712 21.2091 9.46688 20.4898 10.0659 20.2501C10.665 20.0103 11.3842 20.2501 11.624 20.8491L12.1035 21.9277C12.3433 22.5267 12.1035 23.246 11.5045 23.4858C11.385 23.4865 11.1452 23.606 11.025 23.606Z" fill="url(#paint2_radial_21497_1895)"/>
<path d="M24.5706 23.9751C24.0704 22.9266 23.9912 21.9689 24.3329 21.1023C24.6746 20.2356 25.2999 19.5855 26.2086 19.152C27.1314 18.7118 28.0371 18.6316 28.9257 18.9114C29.8143 19.1912 30.5087 19.8553 31.0089 20.9039C31.5158 21.9665 31.5983 22.9311 31.2566 23.7978C30.9149 24.6644 30.2827 25.3179 29.3599 25.758C28.4511 26.1915 27.5525 26.2684 26.6638 25.9886C25.7752 25.7089 25.0775 25.0377 24.5706 23.9751ZM26.9289 20.662C26.5375 20.8487 26.2896 21.1386 26.1853 21.5316C26.0883 21.9039 26.1932 22.4117 26.5 23.0548C26.8001 23.6839 27.1321 24.0919 27.4958 24.2788C27.8669 24.4451 28.2481 24.4348 28.6396 24.2481C29.0311 24.0613 29.279 23.7715 29.3833 23.3785C29.4809 22.9715 29.3796 22.4534 29.0795 21.8243C28.7727 21.1812 28.4371 20.7835 28.0727 20.6312C27.7017 20.465 27.3204 20.4752 26.9289 20.662ZM33.5348 15.8374L35.9885 14.667L34.6446 33.3286L32.2119 34.4891L33.5348 15.8374ZM37.2235 28.2111C36.7166 27.1486 36.6304 26.1943 36.9648 25.3483C37.3065 24.4816 37.9387 23.8282 38.8615 23.388C39.7703 22.9545 40.6619 22.881 41.5366 23.1674C42.4185 23.4332 43.1129 24.0974 43.6198 25.1599C44.1267 26.2225 44.2092 27.1871 43.8675 28.0538C43.5398 28.9138 42.9215 29.5605 42.0127 29.994C41.09 30.4342 40.1843 30.5144 39.2957 30.2346C38.4211 29.9482 37.7303 29.2737 37.2235 28.2111ZM39.5608 24.908C39.1554 25.1014 38.9005 25.3946 38.7962 25.7876C38.6992 26.1599 38.8041 26.6677 39.1109 27.3108C39.411 27.9399 39.7396 28.341 40.0967 28.5139C40.4678 28.6801 40.856 28.6665 41.2615 28.4731C41.639 28.293 41.8799 28.0065 41.9841 27.6135C42.1024 27.2138 42.0115 26.6994 41.7114 26.0703C41.4046 25.4272 41.062 25.0328 40.6836 24.8872C40.3126 24.721 39.9383 24.7279 39.5608 24.908Z" fill="url(#paint3_radial_21497_1895)"/>
<defs>
<radialGradient id="paint0_radial_21497_1895" cx="0" cy="0" r="1" gradientUnits="userSpaceOnUse" gradientTransform="translate(18.6195 23.0405) rotate(21.5713) scale(49.9376 68.5486)">
<stop stop-color="#00E42A"/>
<stop offset="0.49" stop-color="#02B421"/>
<stop offset="0.72" stop-color="#048417"/>
<stop offset="0.86" stop-color="#06540E"/>
<stop offset="1" stop-color="#082404"/>
</radialGradient>
<radialGradient id="paint1_radial_21497_1895" cx="0" cy="0" r="1" gradientUnits="userSpaceOnUse" gradientTransform="translate(3.14 11.8803) rotate(34.5625) scale(59.0158 89.3023)">
<stop stop-color="#00E42A"/>
<stop offset="0.49" stop-color="#02B421"/>
<stop offset="0.72" stop-color="#048417"/>
<stop offset="0.86" stop-color="#06540E"/>
<stop offset="1" stop-color="#082404"/>
</radialGradient>
<radialGradient id="paint2_radial_21497_1895" cx="0" cy="0" r="1" gradientUnits="userSpaceOnUse" gradientTransform="translate(-45 -21.5) rotate(12.7935) scale(117.415 132.979)">
<stop stop-color="#048417"/>
<stop offset="0.49" stop-color="#048417"/>
<stop offset="0.72" stop-color="#06540E"/>
<stop offset="0.86" stop-color="#082404"/>
<stop offset="1" stop-color="#0D131B"/>
</radialGradient>
<radialGradient id="paint3_radial_21497_1895" cx="0" cy="0" r="1" gradientUnits="userSpaceOnUse" gradientTransform="translate(-49.5 18.5) rotate(-19.4155) scale(129.356 80.3435)">
<stop stop-color="#048417"/>
<stop offset="0.49" stop-color="#048417"/>
<stop offset="0.72" stop-color="#06540E"/>
<stop offset="0.86" stop-color="#082404"/>
<stop offset="1" stop-color="#0D131B"/>
</radialGradient>
</defs>
</svg>
