<svg width="512" height="512" viewBox="0 0 512 512" fill="none" xmlns="http://www.w3.org/2000/svg">
<circle cx="256" cy="256" r="249" fill="#0F1012" stroke="#00E42A" stroke-width="14"/>
<path fill-rule="evenodd" clip-rule="evenodd" d="M175.599 217.7C172.329 208.65 163.059 203 153.239 204.59C145.819 205.79 139.799 211.29 137.249 218.36L106.139 304.44C105.599 305.92 106.699 307.49 108.279 307.49H125.119C126.079 307.49 126.929 306.89 127.259 305.99L155.399 228.12C155.789 227.04 157.309 227.05 157.699 228.12L185.789 305.98C186.109 306.88 186.969 307.48 187.929 307.48H204.829C206.409 307.48 207.509 305.92 206.969 304.43L175.619 217.68L175.599 217.7ZM353.019 288.48C335.069 288.48 320.519 273.93 320.519 255.98C320.519 238.03 335.069 223.48 353.019 223.48C370.969 223.48 385.519 238.03 385.519 255.98C385.519 273.93 370.969 288.48 353.019 288.48ZM353.019 203C323.759 203 300.039 226.72 300.039 255.98C300.039 285.24 323.759 308.96 353.019 308.96C382.279 308.96 405.999 285.24 405.999 255.98C405.999 226.72 382.279 203 353.019 203ZM294.529 237.8C294.029 219.02 278.059 204.32 259.269 204.32H215.469C214.309 204.32 213.359 205.26 213.359 206.43V305.39C213.359 306.55 214.299 307.5 215.469 307.5H233.359C234.519 307.5 235.469 306.56 235.469 305.39V224.54C235.469 223.96 235.939 223.49 236.519 223.49H255.949C264.069 223.49 271.169 229.62 271.689 237.73C272.269 246.61 265.229 254 256.469 254H254.879C254.149 254 253.639 254.72 253.889 255.41L272.179 306.11C272.479 306.94 273.269 307.5 274.159 307.5H291.419C292.879 307.5 293.899 306.05 293.399 304.68L279.789 266.96C288.939 260.58 294.839 249.88 294.519 237.81L294.529 237.8Z" fill="#00E42A"/>
</svg>
