<svg width="54" height="52" viewBox="0 0 54 52" fill="none" xmlns="http://www.w3.org/2000/svg">
<path d="M51.9871 14.1228C51.9903 14.0907 51.9903 14.0583 51.9871 14.0262C51.9743 13.9357 51.9505 13.8471 51.9163 13.7623L48.1758 4.77478C47.7999 3.96504 47.2053 3.27631 46.4592 2.78609C45.7131 2.29587 44.8449 2.02363 43.9525 2H10.0242C9.13706 2.0288 8.27542 2.3035 7.53536 2.79346C6.7953 3.28343 6.20593 3.96938 5.83301 4.77478L2.07964 13.7365C2.04333 13.821 2.01739 13.9097 2.00239 14.0005C1.9992 14.0326 1.9992 14.0649 2.00239 14.097C1.99922 14.1356 1.99922 14.1743 2.00239 14.2129V46.1519C2.00239 47.2191 2.42632 48.2425 3.18092 48.9971C3.93552 49.7517 4.95898 50.1757 6.02615 50.1757H48.002C49.0642 50.1672 50.08 49.7397 50.8287 48.9862C51.5774 48.2327 51.9983 47.2141 52 46.1519V14.2387C51.9989 14.1997 51.9946 14.161 51.9871 14.1228ZM8.20863 5.75336C8.38962 5.41439 8.65451 5.1275 8.978 4.9201C9.30149 4.71271 9.67277 4.59174 10.0563 4.56877H43.9847C44.3682 4.59174 44.7395 4.71271 45.063 4.9201C45.3865 5.1275 45.6514 5.41439 45.8324 5.75336L48.8132 12.9446H5.1892L8.20863 5.75336ZM49.4248 46.1519C49.4248 46.5361 49.2722 46.9045 49.0005 47.1762C48.7289 47.4478 48.3604 47.6004 47.9762 47.6004H6.00039C5.80963 47.6013 5.62057 47.5645 5.44408 47.492C5.26759 47.4196 5.10714 47.3131 4.97195 47.1785C4.83675 47.0439 4.72948 46.8839 4.65628 46.7077C4.58308 46.5316 4.5454 46.3427 4.5454 46.1519V15.5263H49.4184L49.4248 46.1519Z" fill="white" fill-opacity="0.6"/>
<path d="M5.06543 46.1523C5.06549 46.2744 5.08993 46.3951 5.13672 46.5078C5.1836 46.6206 5.25229 46.7233 5.33887 46.8096C5.42552 46.8958 5.52849 46.9643 5.6416 47.0107C5.7547 47.0571 5.87579 47.0806 5.99805 47.0801H47.9766C48.2226 47.08 48.4588 46.9826 48.6328 46.8086C48.8068 46.6346 48.9042 46.3984 48.9043 46.1523L48.8984 16.0469H5.06543V46.1523ZM10.0801 5.08887C9.78792 5.10762 9.50532 5.20035 9.25879 5.3584C9.0159 5.51415 8.81551 5.72773 8.67676 5.98047L5.97168 12.4248H48.0352L45.3633 5.98047C45.2245 5.72791 45.025 5.51407 44.7822 5.3584C44.5357 5.20035 44.2531 5.10762 43.9609 5.08887H10.0801ZM52.5205 46.1523L52.5146 46.377C52.4578 47.4946 51.9897 48.555 51.1973 49.3525C50.352 50.2032 49.2051 50.6857 48.0059 50.6953H6.02637C4.82141 50.6953 3.66559 50.2172 2.81348 49.3652C1.96144 48.5132 1.48254 47.3573 1.48242 46.1523V14.2129C1.48064 14.1751 1.48072 14.1374 1.48242 14.0996C1.47989 14.0495 1.47942 13.9992 1.48438 13.9492L1.48633 13.9326L1.48926 13.916C1.51088 13.7851 1.54853 13.6572 1.60059 13.5352L5.35352 4.57422L5.36133 4.55664C5.77475 3.66378 6.42762 2.90254 7.24805 2.35938C8.06833 1.81631 9.0236 1.51247 10.0068 1.48047L10.0156 1.47949H43.9658V1.48047C44.9551 1.50666 45.9181 1.80818 46.7451 2.35156C47.572 2.89491 48.2308 3.65827 48.6475 4.55566L48.6523 4.56543L48.6562 4.5752L52.3965 13.5625L52.3984 13.5674V13.5684C52.4232 13.63 52.4447 13.6928 52.4619 13.7568L52.502 13.9531L52.5039 13.9639L52.5049 13.9756C52.5088 14.0155 52.5087 14.0556 52.5078 14.0957C52.5135 14.1382 52.5183 14.1807 52.5195 14.2236L52.5205 14.2314V46.1523Z" stroke="white" stroke-opacity="0.6" stroke-width="1.04025"/>
<path d="M26.1213 38.659C26.3012 38.8354 26.5443 38.9343 26.7976 38.9341C26.9247 38.9354 27.0508 38.9118 27.1685 38.8646C27.2863 38.8174 27.3934 38.7475 27.4836 38.659L32.9137 33.2817C33.0102 33.1956 33.088 33.0911 33.1423 32.9744C33.1966 32.8577 33.2264 32.7313 33.2299 32.6028C33.2333 32.4744 33.2103 32.3466 33.1622 32.2273C33.1142 32.1079 33.0421 31.9994 32.9504 31.9084C32.8587 31.8174 32.7492 31.7458 32.6286 31.6979C32.508 31.65 32.3788 31.6268 32.2489 31.6297C32.119 31.6326 31.991 31.6616 31.8728 31.7149C31.7545 31.7682 31.6484 31.8447 31.561 31.9398L27.757 35.6953V23.2384C27.757 22.9869 27.656 22.7457 27.476 22.5678C27.2961 22.39 27.0521 22.29 26.7976 22.29C26.5432 22.29 26.2992 22.39 26.1193 22.5678C25.9393 22.7457 25.8383 22.9869 25.8383 23.2384V35.6953L22.0391 31.9398C21.9499 31.8517 21.8441 31.7818 21.7277 31.7341C21.6112 31.6864 21.4864 31.6618 21.3603 31.6618C21.2343 31.6618 21.1094 31.6864 20.993 31.7341C20.8765 31.7818 20.7707 31.8517 20.6815 31.9398C20.5924 32.0279 20.5217 32.1325 20.4735 32.2476C20.4252 32.3627 20.4004 32.4861 20.4004 32.6108C20.4004 32.7354 20.4252 32.8588 20.4735 32.9739C20.5217 33.089 20.5924 33.1936 20.6815 33.2817L26.1213 38.659Z" fill="white" fill-opacity="0.6"/>
<path d="M26.7979 21.7695C27.1882 21.7696 27.5639 21.9236 27.8418 22.1982C28.1197 22.4731 28.2773 22.847 28.2773 23.2383V34.4502L31.1953 31.5693C31.3271 31.4309 31.4848 31.3198 31.6592 31.2412C31.8411 31.1592 32.0378 31.1139 32.2373 31.1094C32.4367 31.1049 32.6349 31.1412 32.8203 31.2148C33.0057 31.2885 33.1747 31.3985 33.3164 31.5391C33.4582 31.6797 33.57 31.8479 33.6445 32.0332C33.7191 32.2185 33.7553 32.4175 33.75 32.6172C33.7446 32.8168 33.6985 33.0134 33.6143 33.1943C33.5337 33.3673 33.4182 33.5209 33.2783 33.6504L33.2793 33.6514L27.8496 39.0283L27.8477 39.0303C27.7083 39.1669 27.5434 39.275 27.3623 39.3477C27.1829 39.4196 26.991 39.4544 26.7979 39.4531V39.4541L26.7949 39.4531L26.792 39.4541V39.4531C26.4054 39.4519 26.0332 39.3013 25.7568 39.0303L25.7559 39.0293L20.3154 33.6514C20.1779 33.5153 20.0689 33.3533 19.9941 33.1748C19.9193 32.9961 19.8799 32.8041 19.8799 32.6104C19.8799 32.4168 19.9193 32.2254 19.9941 32.0469C20.0689 31.8684 20.1779 31.7064 20.3154 31.5703C20.4531 31.4342 20.6168 31.3263 20.7959 31.2529C20.975 31.1796 21.1668 31.1416 21.3604 31.1416C21.5539 31.1416 21.7457 31.1796 21.9248 31.2529C22.1039 31.3263 22.2666 31.4342 22.4043 31.5703L25.3184 34.4492V23.2383C25.3184 22.8469 25.4758 22.4731 25.7539 22.1982C26.0318 21.9235 26.4074 21.7695 26.7979 21.7695Z" stroke="white" stroke-opacity="0.6" stroke-width="1.04025"/>
</svg>
