<svg width="9.375em" height="2.4375em"  viewBox="0 0 520 66" fill="none" xmlns="http://www.w3.org/2000/svg">
<path fill-rule="evenodd" clip-rule="evenodd" d="M43.32 9.19958C41.29 3.56958 35.52 0.0595605 29.42 1.04956C24.8 1.79956 21.06 5.20956 19.47 9.60956L0.120031 63.1296C-0.209969 64.0496 0.470025 65.0296 1.45003 65.0296H11.92C12.52 65.0296 13.05 64.6596 13.25 64.0996L30.75 15.6896C30.99 15.0196 31.94 15.0196 32.18 15.6896L49.64 64.0996C49.84 64.6596 50.37 65.0396 50.97 65.0396H61.48C62.46 65.0396 63.14 64.0696 62.81 63.1396L43.32 9.19958ZM479.47 2.44958H484.74V45.5396L511.11 18.5396H517.28L497.17 38.8296L519.97 65.0196H513.71L493.86 42.2196L484.74 51.5196V65.0196H479.47V2.43958V2.44958ZM450.3 18.5396H455.57V28.6396H455.75C456.91 24.4396 461.29 17.9996 470.86 17.9996C471.93 17.9996 473.27 18.0896 474.26 18.4496V22.9196C473.19 22.7396 472.11 22.6496 470.95 22.6496C460.85 22.6496 455.57 29.7996 455.57 39.2796V65.0296H450.3V18.5396ZM438.39 41.7796C438.39 28.1896 430.17 22.1096 421.49 22.1096C412.81 22.1096 404.59 28.1896 404.59 41.7796C404.59 55.3696 412.81 61.4496 421.49 61.4496C430.17 61.4496 438.39 55.3696 438.39 41.7796ZM399.42 41.7796C399.42 25.3296 409.97 17.6396 421.5 17.6396C433.03 17.6396 443.49 25.3296 443.49 41.7796C443.49 58.2296 432.94 65.9196 421.5 65.9196C410.06 65.9196 399.42 58.2296 399.42 41.7796ZM331.89 18.5396H337.16L348.51 59.3896H348.87L362.46 18.5396H367.2L380.7 59.3896H381.06L392.5 18.5396H397.69L384.19 65.0296H378.11L364.79 25.5196L351.47 65.0296H345.48L331.89 18.5396ZM313.01 55.0996V23.0096H305.59V18.5396H313.01V7.00958H318.28V18.5396H327.58V23.0096H318.28V53.9396C318.28 59.3896 320.25 61.1796 325.34 61.1796C326.41 61.1796 327.22 61.1796 328.29 60.9996V65.1996C326.95 65.4696 325.43 65.6496 323.73 65.6496C317.56 65.6496 313 63.1496 313 55.0996H313.01ZM299 39.2796C298.91 27.8396 292.92 21.9396 283.71 21.9396C274.5 21.9396 268.24 27.5696 267.71 39.2796H299ZM262.53 41.9596C262.53 25.1496 272.01 17.6396 283.81 17.6396C295.61 17.6396 304.1 25.4196 304.1 40.2596C304.1 41.7796 304.01 42.6696 303.83 43.4796H267.71C268.07 55.5496 273.88 61.6296 284.34 61.6296C289.97 61.6296 296.05 59.8396 298.55 52.5996H303.47C300.25 62.7896 292.38 65.9196 284.25 65.9196C271.2 65.9196 262.53 57.9596 262.53 41.9596ZM207.19 2.44958H213.63L249.21 56.9796H249.39V2.44958H254.84V65.0296H248.31L212.91 10.5896H212.64V65.0296H207.19V2.44958ZM153.63 53.2096C142.47 53.2096 133.43 44.1596 133.43 32.9996C133.43 21.8396 142.48 12.7896 153.63 12.7896C164.78 12.7896 173.84 21.8396 173.84 32.9996C173.84 44.1596 164.79 53.2096 153.63 53.2096ZM153.63 0.0595703C135.44 0.0595703 120.69 14.8096 120.69 32.9996C120.69 51.1896 135.44 65.9396 153.63 65.9396C171.82 65.9396 186.57 51.1896 186.57 32.9996C186.57 14.8096 171.82 0.0595703 153.63 0.0595703ZM117.26 21.6896C116.95 10.0096 107.02 0.879578 95.34 0.879578H68.1C67.38 0.879578 66.79 1.46958 66.79 2.18958V63.7196C66.79 64.4396 67.38 65.0296 68.1 65.0296H79.23C79.95 65.0296 80.54 64.4396 80.54 63.7196V13.4496C80.54 13.0896 80.83 12.7996 81.2 12.7996H93.28C98.33 12.7996 102.74 16.6096 103.07 21.6496C103.43 27.1696 99.05 31.7596 93.61 31.7596H92.62C92.17 31.7596 91.85 32.2096 92 32.6396L103.37 64.1596C103.56 64.6796 104.05 65.0296 104.6 65.0296H115.33C116.24 65.0296 116.87 64.1296 116.56 63.2796L108.1 39.8296C113.79 35.8596 117.46 29.2096 117.26 21.6996V21.6896Z" fill="#00E42A"/>
</svg>
