<svg width="81" height="47" viewBox="0 0 81 47" fill="none" xmlns="http://www.w3.org/2000/svg">
<g clip-path="url(#clip0_21311_2157)">
<path fill-rule="evenodd" clip-rule="evenodd" d="M46.0336 1.44447L72.2605 16.9318C72.8975 17.305 73.2558 17.942 73.2558 18.6786C73.2558 19.4151 72.8925 20.0471 72.2605 20.4254L46.0336 35.9127C42.769 37.8386 38.9967 37.8386 35.732 35.9127L9.50509 20.4254C8.86808 20.0521 8.50977 19.4201 8.50977 18.6835C8.50977 17.947 8.87306 17.315 9.50509 16.9367L35.727 1.44447C38.9917 -0.48149 42.764 -0.48149 46.0287 1.44447H46.0336Z" fill="url(#paint0_radial_21311_2157)"/>
<path fill-rule="evenodd" clip-rule="evenodd" d="M17.5473 25.1782L9.50509 20.4255C8.88301 20.0573 8.5247 19.4452 8.50977 18.7285V27.9154C8.5247 28.632 8.88301 29.2442 9.50509 29.6124L35.732 45.0997C38.9967 47.0257 42.769 47.0257 46.0336 45.0997L72.2605 29.6124C72.8826 29.2442 73.2409 28.632 73.2558 27.9154V18.7285C73.2409 19.4452 72.8826 20.0623 72.2605 20.4255L64.2183 25.1782L46.0386 35.9178C42.7739 37.8438 38.9967 37.8438 35.737 35.9178L17.5573 25.1782H17.5473Z" fill="url(#paint1_radial_21311_2157)"/>
<path fill-rule="evenodd" clip-rule="evenodd" d="M46.0336 1.44447L72.2605 16.9318C72.8975 17.305 73.2558 17.942 73.2558 18.6786C73.2558 19.4151 72.8925 20.0472 72.2605 20.4254L46.0336 35.9127C42.769 37.8386 38.9967 37.8386 35.732 35.9127L9.50509 20.4254C8.86808 20.0521 8.50977 19.4201 8.50977 18.6836C8.50977 17.947 8.87306 17.315 9.50509 16.9368L35.727 1.44447C38.9917 -0.48149 42.764 -0.48149 46.0287 1.44447H46.0336ZM71.9968 17.3697L45.7748 1.88241C44.2221 0.966712 42.55 0.508861 40.8828 0.508861C39.2156 0.508861 37.5385 0.966712 35.9908 1.88241L9.76388 17.3697C9.525 17.514 9.33589 17.7032 9.21147 17.9221C9.08706 18.1411 9.01738 18.3999 9.01738 18.6836C9.01738 18.9672 9.08706 19.221 9.21147 19.445C9.33589 19.6639 9.525 19.8531 9.76388 19.9974L35.9908 35.4847C37.5435 36.4004 39.2156 36.8582 40.8828 36.8582C42.55 36.8582 44.2271 36.4004 45.7748 35.4847L72.0017 19.9974C72.2406 19.8531 72.4297 19.6639 72.5541 19.445C72.6786 19.226 72.7482 18.9672 72.7482 18.6836C72.7482 18.3999 72.6786 18.1461 72.5541 17.9221C72.4297 17.7032 72.2406 17.514 72.0017 17.3697H71.9968Z" fill="url(#paint2_radial_21311_2157)"/>
<g style="mix-blend-mode:soft-light">
<path fill-rule="evenodd" clip-rule="evenodd" d="M46.0239 1.44447L72.2508 16.9318C72.8878 17.305 73.2461 17.942 73.2461 18.6786C73.2461 19.4151 72.8828 20.0472 72.2508 20.4254L46.0239 35.9127C42.7592 37.8386 38.9869 37.8386 35.7222 35.9127L9.49533 20.4254C8.85832 20.0521 8.5 19.4151 8.5 18.6786C8.5 17.942 8.86329 17.31 9.49533 16.9318L35.7222 1.44447C38.9869 -0.48149 42.7592 -0.48149 46.0239 1.44447ZM71.992 17.3697L45.7651 1.88241C44.2124 0.966712 42.5402 0.508861 40.873 0.508861C39.2059 0.508861 37.5287 0.966712 35.981 1.88241L9.75411 17.3697C9.51523 17.514 9.32612 17.7032 9.20171 17.9221C9.07729 18.1411 9.00762 18.3999 9.00762 18.6836C9.00762 18.9672 9.07729 19.221 9.20171 19.445C9.32612 19.6639 9.51523 19.8531 9.75411 19.9974L35.981 35.4847C37.5337 36.4004 39.2059 36.8582 40.873 36.8582C42.5402 36.8582 44.2173 36.4004 45.7651 35.4847L71.992 19.9974C72.2309 19.8531 72.42 19.6639 72.5444 19.445C72.6688 19.226 72.7385 18.9672 72.7385 18.6836C72.7385 18.3999 72.6688 18.1461 72.5444 17.9221C72.42 17.7032 72.2309 17.514 71.992 17.3697Z" fill="#F8F8F8"/>
</g>
<path fill-rule="evenodd" clip-rule="evenodd" d="M46.0336 45.1044C42.769 47.0303 38.9967 47.0303 35.732 45.1044L9.50509 29.6121C8.88301 29.2438 8.5247 28.6317 8.50977 27.915V28.567C8.5247 29.2836 8.88301 29.8957 9.50509 30.264L35.732 45.7513C38.9967 47.6773 42.769 47.6773 46.0336 45.7513L72.2605 30.264C72.8826 29.8957 73.2409 29.2836 73.2558 28.567V27.915C73.2409 28.6317 72.8826 29.2438 72.2605 29.6121L46.0336 45.0994V45.1044Z" fill="url(#paint3_radial_21311_2157)"/>
<path fill-rule="evenodd" clip-rule="evenodd" d="M11.3184 25.875L12.4381 26.5369V27.9204L11.3184 27.2585V25.875Z" fill="url(#paint4_radial_21311_2157)"/>
<path fill-rule="evenodd" clip-rule="evenodd" d="M11.4313 25.6757L12.6655 26.4023V28.3133L11.0879 27.3827V25.4717L11.4313 25.6757ZM11.3168 25.8748L12.4415 26.5367V27.9202L11.3168 27.2583V25.8748Z" fill="url(#paint5_radial_21311_2157)"/>
<path fill-rule="evenodd" clip-rule="evenodd" d="M47.9995 14.7521C48.5867 13.7269 47.9995 12.5275 46.5264 11.9054C45.4116 11.4326 43.9933 11.4376 42.8586 11.8457L29.0335 16.7925C28.7946 16.8771 28.7647 17.0961 28.9738 17.2205L31.1983 18.5194C31.3227 18.594 31.5069 18.609 31.6512 18.5542L44.1575 14.0802C44.3317 14.0205 44.5307 14.135 44.4611 14.2594L39.3899 23.078C39.3301 23.1825 39.3749 23.297 39.5043 23.3716L41.7388 24.6755C41.9479 24.7949 42.2664 24.7501 42.3659 24.5809L48.0094 14.7521H47.9995Z" fill="url(#paint6_radial_21311_2157)"/>
<path fill-rule="evenodd" clip-rule="evenodd" d="M47.7456 14.6824C48.0194 14.2046 48.0194 13.6871 47.7755 13.2193C47.5366 12.7564 47.0589 12.3434 46.382 12.0547C45.8794 11.8407 45.3071 11.7362 44.7298 11.7263C44.1326 11.7163 43.5304 11.8109 42.993 12.005L29.1679 16.9517L29.138 16.9716C29.138 16.9716 29.1131 17.0015 29.1081 17.0164C29.1081 17.0314 29.1081 17.0513 29.1231 17.0612L29.1529 17.0861L31.3775 18.385C31.3775 18.385 31.4223 18.4049 31.4422 18.4049C31.4671 18.4049 31.4919 18.4049 31.5118 18.395L44.0181 13.921C44.1525 13.8712 44.3018 13.8712 44.4262 13.906C44.481 13.921 44.5307 13.9409 44.5755 13.9658C44.6153 13.9906 44.6552 14.0205 44.685 14.0553C44.7497 14.135 44.7696 14.2295 44.7149 14.3291L39.6437 23.1477C39.6437 23.1477 39.6337 23.1825 39.6437 23.1974C39.6487 23.2124 39.6636 23.2273 39.6835 23.2372L41.918 24.5411L41.9528 24.556C41.9528 24.556 42.0026 24.561 42.0275 24.556C42.0524 24.556 42.0723 24.5461 42.0872 24.5312L42.1071 24.5063L47.7506 14.6774L47.7456 14.6824ZM47.9995 14.7521C48.5867 13.7269 47.9995 12.5275 46.5264 11.9054C45.4116 11.4326 43.9933 11.4376 42.8586 11.8457L29.0335 16.7925C28.7946 16.8771 28.7647 17.0961 28.9738 17.2205L31.1983 18.5194C31.3227 18.594 31.5069 18.609 31.6512 18.5542L44.1575 14.0802C44.3317 14.0205 44.5307 14.135 44.4611 14.2594L39.3899 23.073C39.3301 23.1775 39.3749 23.292 39.5043 23.3666L41.7388 24.6705C41.9479 24.7899 42.2664 24.7452 42.3659 24.576L48.0094 14.7471L47.9995 14.7521Z" fill="url(#paint7_radial_21311_2157)"/>
</g>
<defs>
<radialGradient id="paint0_radial_21311_2157" cx="0" cy="0" r="1" gradientUnits="userSpaceOnUse" gradientTransform="translate(20.5284 1.09113) scale(53.0311 53.0311)">
<stop stop-color="#00E42A"/>
<stop offset="0.49" stop-color="#02B421"/>
<stop offset="0.72" stop-color="#048417"/>
<stop offset="0.86" stop-color="#06540E"/>
<stop offset="1" stop-color="#082404"/>
</radialGradient>
<radialGradient id="paint1_radial_21311_2157" cx="0" cy="0" r="1" gradientUnits="userSpaceOnUse" gradientTransform="translate(3.93624 1.6686) scale(69.1504 69.1504)">
<stop stop-color="#048417"/>
<stop offset="0.49" stop-color="#048417"/>
<stop offset="0.72" stop-color="#06540E"/>
<stop offset="0.86" stop-color="#082404"/>
<stop offset="1" stop-color="#0D131B"/>
</radialGradient>
<radialGradient id="paint2_radial_21311_2157" cx="0" cy="0" r="1" gradientUnits="userSpaceOnUse" gradientTransform="translate(13.6307 9.30756) scale(54.2404 54.2404)">
<stop stop-color="#00E42A"/>
<stop offset="0.49" stop-color="#02B421"/>
<stop offset="0.72" stop-color="#048417"/>
<stop offset="0.86" stop-color="#06540E"/>
<stop offset="1" stop-color="#082404"/>
</radialGradient>
<radialGradient id="paint3_radial_21311_2157" cx="0" cy="0" r="1" gradientUnits="userSpaceOnUse" gradientTransform="translate(-17.7334 -17.5506) rotate(30) scale(84.7756)">
<stop stop-color="#048417"/>
<stop offset="0.49" stop-color="#048417"/>
<stop offset="0.72" stop-color="#06540E"/>
<stop offset="0.86" stop-color="#082404"/>
<stop offset="1" stop-color="#0D131B"/>
</radialGradient>
<radialGradient id="paint4_radial_21311_2157" cx="0" cy="0" r="1" gradientUnits="userSpaceOnUse" gradientTransform="translate(14.1646 29.1622) rotate(61.1) scale(7.57165 7.57166)">
<stop stop-color="#00E42A"/>
<stop offset="0.49" stop-color="#02B421"/>
<stop offset="0.72" stop-color="#048417"/>
<stop offset="0.86" stop-color="#06540E"/>
<stop offset="1" stop-color="#082404"/>
</radialGradient>
<radialGradient id="paint5_radial_21311_2157" cx="0" cy="0" r="1" gradientUnits="userSpaceOnUse" gradientTransform="translate(65.1802 26.0591) rotate(-121.58) scale(5.52083)">
<stop stop-color="#00E42A"/>
<stop offset="0.49" stop-color="#02B421"/>
<stop offset="0.72" stop-color="#048417"/>
<stop offset="0.86" stop-color="#06540E"/>
<stop offset="1" stop-color="#082404"/>
</radialGradient>
<radialGradient id="paint6_radial_21311_2157" cx="0" cy="0" r="1" gradientUnits="userSpaceOnUse" gradientTransform="translate(-3.66085 -2.24047) scale(58.1501)">
<stop stop-color="#048417"/>
<stop offset="0.49" stop-color="#048417"/>
<stop offset="0.72" stop-color="#06540E"/>
<stop offset="0.86" stop-color="#082404"/>
<stop offset="1" stop-color="#0D131B"/>
</radialGradient>
<radialGradient id="paint7_radial_21311_2157" cx="0" cy="0" r="1" gradientUnits="userSpaceOnUse" gradientTransform="translate(101.939 21.8006) rotate(-150) scale(61.5707 61.5707)">
<stop stop-color="#048417"/>
<stop offset="0.49" stop-color="#048417"/>
<stop offset="0.72" stop-color="#06540E"/>
<stop offset="0.86" stop-color="#082404"/>
<stop offset="1" stop-color="#0D131B"/>
</radialGradient>
<clipPath id="clip0_21311_2157">
<rect width="80" height="47" fill="white" transform="translate(0.5)"/>
</clipPath>
</defs>
</svg>
