<svg width="20" height="20" viewBox="0 0 20 20" fill="none" xmlns="http://www.w3.org/2000/svg">
<path d="M15 0C16.3807 0 17.5 1.11929 17.5 2.5V19.375C17.5 19.5954 17.3838 19.7995 17.1943 19.9121C17.0048 20.0246 16.7697 20.0292 16.5762 19.9238L10 16.3369L3.42383 19.9238C3.23026 20.0292 2.99521 20.0246 2.80566 19.9121C2.6162 19.7995 2.5 19.5954 2.5 19.375V2.5C2.5 1.11929 3.61929 0 5 0H15ZM10.1992 5.12402C10.1177 4.95893 9.88226 4.95893 9.80078 5.12402L9.00684 6.73145C8.97448 6.797 8.91219 6.843 8.83984 6.85352L7.06543 7.11133C6.88325 7.13781 6.81055 7.36173 6.94238 7.49023L8.22656 8.74219C8.2787 8.7932 8.30237 8.86657 8.29004 8.93848L7.9873 10.7061C7.95645 10.8874 8.14671 11.0251 8.30957 10.9395L9.89648 10.1055C9.96119 10.0714 10.0388 10.0714 10.1035 10.1055L11.6904 10.9395C11.8533 11.0251 12.0436 10.8874 12.0127 10.7061L11.71 8.93848C11.6976 8.86657 11.7213 8.7932 11.7734 8.74219L13.0576 7.49023C13.1894 7.36173 13.1167 7.13781 12.9346 7.11133L11.1602 6.85352C11.0878 6.843 11.0255 6.797 10.9932 6.73145L10.1992 5.12402Z" fill="white"/>
</svg>
