<svg width="48" height="22" viewBox="0 0 48 22" fill="none" xmlns="http://www.w3.org/2000/svg">
<path d="M20.9 7.16695e-08H47.0021L29 9.00012H1L19.187 0.385005C19.7225 0.13139 20.3076 -0.000112075 20.9 7.16695e-08Z" fill="#F2F2F2"/>
<path d="M29 8.99992L46.572 0.0997961C46.6912 0.0424353 46.8207 0.00956332 46.9528 0.00312541C47.0849 -0.0033125 47.217 0.0168144 47.3412 0.0623152C47.4653 0.107816 47.5792 0.177766 47.6758 0.268027C47.7725 0.358287 47.8501 0.467024 47.904 0.587803C47.967 0.724805 48 0.874807 48 1.02781V11.456C48.0022 11.8415 47.8962 12.22 47.694 12.5483C47.4917 12.8766 47.2014 13.1415 46.856 13.313L29 22.0001V8.99992Z" fill="#CFCFCF"/>
<path d="M29 8.99992L46.572 0.0997961C46.6912 0.0424353 46.8207 0.00956332 46.9528 0.00312541C47.0849 -0.0033125 47.217 0.0168144 47.3412 0.0623152C47.4653 0.107816 47.5791 0.177766 47.6758 0.268027C47.7725 0.358287 47.8501 0.467024 47.904 0.587803C47.967 0.724805 48 0.874807 48 1.02781L29 10.7679V8.99992Z" fill="#E6E6E6"/>
<path d="M1 9H29C29.6667 9 30 9.33334 30 10V21.0002C30 21.6668 29.6667 22.0002 29 22.0002H1C0.333334 22.0002 0 21.6668 0 21.0002V10C0 9.33334 0.333334 9 1 9Z" fill="#D9D9D9"/>
<path d="M2 11H28V20.0001H2V11Z" fill="#4E505D"/>
<path d="M21 13H25V16H21V13Z" fill="#44DDB8"/>
</svg>
