<svg width="80" height="28" viewBox="0 0 80 28" fill="none" xmlns="http://www.w3.org/2000/svg">
<path fill-rule="evenodd" clip-rule="evenodd" d="M18.3916 3.88448C17.5275 1.49302 15.0779 -9.76535e-07 12.4829 0.420158C10.5222 0.737258 8.93142 2.19064 8.25758 4.05889L0.0367422 26.8082C-0.105953 27.1993 0.184722 27.6142 0.602238 27.6142H5.05222C5.3059 27.6142 5.53051 27.4556 5.61772 27.2178L13.0537 6.64062C13.1568 6.35523 13.5585 6.35787 13.6615 6.64062L21.0843 27.2152C21.1689 27.453 21.3961 27.6116 21.6498 27.6116H26.1156C26.5332 27.6116 26.8238 27.1993 26.6811 26.8056L18.3969 3.88184L18.3916 3.88448ZM65.2749 22.5881C60.5316 22.5881 56.6868 18.7433 56.6868 14C56.6868 9.2567 60.5316 5.41185 65.2749 5.41185C70.0182 5.41185 73.8631 9.2567 73.8631 14C73.8631 18.7433 70.0182 22.5881 65.2749 22.5881ZM65.2749 0C57.543 0 51.2749 6.26802 51.2749 14C51.2749 21.732 57.543 28 65.2749 28C73.0069 28 79.2749 21.732 79.2749 14C79.2749 6.26802 73.0069 0 65.2749 0ZM49.8189 9.19592C49.6868 4.2333 45.4667 0.348809 40.5014 0.348809H28.9273C28.6207 0.348809 28.3697 0.597205 28.3697 0.906378V27.0566C28.3697 27.3632 28.6181 27.6142 28.9273 27.6142H33.6547C33.9612 27.6142 34.2123 27.3658 34.2123 27.0566V5.69196C34.2123 5.53869 34.3365 5.41449 34.4897 5.41449H39.6241C41.7699 5.41449 43.646 7.03435 43.7834 9.17742C43.9367 11.524 42.0764 13.4768 39.7615 13.4768H39.3414C39.1485 13.4768 39.0137 13.667 39.0798 13.8494L43.9129 27.2469C43.9922 27.4662 44.201 27.6142 44.4361 27.6142H48.9971C49.3829 27.6142 49.6524 27.231 49.5203 26.869L45.9239 16.9015C48.3418 15.2156 49.9008 12.3881 49.8163 9.19856L49.8189 9.19592Z" fill="white"/>
</svg>
