<svg width="1em" height="1.11em" viewBox="0 0 36 40" fill="none" xmlns="http://www.w3.org/2000/svg">
<path d="M30.904 3.1543H30.7607V5.4482C30.7607 7.16863 29.327 8.74569 27.4632 8.74569H8.53844C6.81801 8.74569 5.24095 7.312 5.24095 5.4482V3.1543H5.09758C2.51693 3.1543 0.509766 5.30483 0.509766 7.74211V35.4124C0.509766 37.993 2.6603 40.0002 5.09758 40.0002H30.904C33.4847 40.0002 35.4918 37.8496 35.4918 35.4124V7.88548C35.4918 5.30483 33.4847 3.1543 30.904 3.1543ZM20.2947 25.5199H8.68181C7.96496 25.5199 7.53485 24.9464 7.53485 24.3729C7.53485 23.6561 8.10833 23.226 8.68181 23.226H20.2947C21.0116 23.226 21.4417 23.7995 21.4417 24.3729C21.4417 24.9464 20.8682 25.5199 20.2947 25.5199ZM27.1764 19.9285H8.68181C7.96496 19.9285 7.53485 19.355 7.53485 18.7815C7.53485 18.0647 8.10833 17.6346 8.68181 17.6346H27.1764C27.8933 17.6346 28.3234 18.2081 28.3234 18.7815C28.3234 19.355 27.8933 19.9285 27.1764 19.9285Z" fill="#96EA63"/>
<path d="M9.397 6.45161H26.6013C27.6049 6.45161 28.4651 5.5914 28.4651 4.58781V1.8638C28.4651 0.860215 27.6049 0 26.6013 0H9.397C8.39342 0 7.5332 0.860215 7.5332 1.8638V4.58781C7.5332 5.5914 8.39342 6.45161 9.397 6.45161Z" fill="#96EA63"/>
</svg>
