<svg width="1em" height="1em" viewBox="0 0 48 48" fill="none" xmlns="http://www.w3.org/2000/svg">
<rect width="48" height="48" rx="24" fill="white"/>
<path d="M31.4817 16.2184C29.93 15.495 28.25 14.97 26.5 14.6667C26.4692 14.6671 26.4399 14.6797 26.4183 14.7017C26.2083 15.0867 25.9633 15.5884 25.8 15.9734C23.9438 15.6935 22.0562 15.6935 20.2 15.9734C20.0367 15.5767 19.7917 15.0867 19.57 14.7017C19.5583 14.6784 19.5233 14.6667 19.4883 14.6667C17.7383 14.97 16.07 15.495 14.5067 16.2184C14.495 16.2184 14.4833 16.23 14.4717 16.2417C11.2983 20.99 10.4233 25.61 10.855 30.1834C10.855 30.2067 10.8667 30.23 10.89 30.2417C12.99 31.7817 15.0083 32.715 17.0033 33.3334C17.0383 33.345 17.0733 33.3334 17.085 33.31C17.5517 32.6684 17.9717 31.9917 18.3333 31.28C18.3567 31.2334 18.3333 31.1867 18.2867 31.175C17.6217 30.9184 16.9917 30.615 16.3733 30.265C16.3267 30.2417 16.3267 30.1717 16.3617 30.1367C16.49 30.0434 16.6183 29.9384 16.7467 29.845C16.77 29.8217 16.805 29.8217 16.8283 29.8334C20.8417 31.665 25.17 31.665 29.1367 29.8334C29.16 29.8217 29.195 29.8217 29.2183 29.845C29.3467 29.95 29.475 30.0434 29.6033 30.1484C29.65 30.1834 29.65 30.2534 29.5917 30.2767C28.985 30.6384 28.3433 30.93 27.6783 31.1867C27.6317 31.1984 27.62 31.2567 27.6317 31.2917C28.005 32.0034 28.425 32.68 28.88 33.3217C28.915 33.3334 28.95 33.345 28.985 33.3334C30.9917 32.715 33.01 31.7817 35.11 30.2417C35.1333 30.23 35.145 30.2067 35.145 30.1834C35.6583 24.8984 34.2933 20.3134 31.5283 16.2417C31.5167 16.23 31.505 16.2184 31.4817 16.2184ZM18.94 27.395C17.7383 27.395 16.735 26.2867 16.735 24.9217C16.735 23.5567 17.715 22.4484 18.94 22.4484C20.1767 22.4484 21.1567 23.5684 21.145 24.9217C21.145 26.2867 20.165 27.395 18.94 27.395ZM27.0717 27.395C25.87 27.395 24.8667 26.2867 24.8667 24.9217C24.8667 23.5567 25.8467 22.4484 27.0717 22.4484C28.3083 22.4484 29.2883 23.5684 29.2767 24.9217C29.2767 26.2867 28.3083 27.395 27.0717 27.395Z" fill="#706BE8"/>
</svg>
