<svg width="1em" height="1em" viewBox="0 0 49 48" fill="none" xmlns="http://www.w3.org/2000/svg">
    <rect x="0.25" width="48" height="48" rx="24" fill="white" />
    <path
        d="M38.3738 24.6827C38.3738 23.7405 38.0484 22.9442 37.3978 22.2936C36.7472 21.6429 35.9509 21.3176 35.0087 21.3176V15.9335C35.0087 15.1932 34.7452 14.5596 34.218 14.0323C33.6907 13.5051 33.0571 13.2416 32.3168 13.2416H26.9327V17.6495H30.6012V28.0481H35.009C35.9512 28.0481 36.7475 27.7231 37.3981 27.0725C38.0488 26.4219 38.3738 25.625 38.3738 24.6827Z"
        fill="#EA4335" />
    <path
        d="M23.5676 9.87622C22.6253 9.87622 21.829 10.2015 21.1784 10.8522C20.5278 11.5028 20.2025 12.2991 20.2025 13.2413H14.8184C14.0781 13.2413 13.4444 13.5048 12.9172 14.032C12.3899 14.5593 12.1265 15.1929 12.1265 15.9332V17.6488L26.9327 17.6495V13.2416C26.9327 12.2994 26.6077 11.5025 25.957 10.8518C25.3064 10.2012 24.5098 9.87622 23.5676 9.87622Z"
        fill="#4285F4" />
    <path
        d="M19.8226 31.7163H16.5338C16.9773 31.4581 17.4011 30.9933 17.802 30.6536C19.5883 29.1403 20.5721 27.0198 20.5721 24.6824C20.5721 22.3449 19.5883 20.2248 17.802 18.7111C17.4011 18.3714 16.9773 17.9067 16.5338 17.6485L12.1265 17.6488L12.126 21.0479C13.2027 21.0479 14.145 21.3899 14.9527 22.0743C15.7604 22.7586 16.1643 23.6279 16.1643 24.6824C16.1643 25.7369 15.7604 26.6061 14.9527 27.2905C14.145 27.9748 13.2027 28.3168 12.126 28.3168V33.4319C12.126 34.1722 12.3894 34.8058 12.9167 35.3331C13.4439 35.8603 14.0776 36.1238 14.8179 36.1238H19.8223L19.8226 31.7163Z"
        fill="#34A853" />
    <path
        d="M30.6009 31.7163L19.8226 31.7163L19.8223 36.1238L32.3165 36.1241C33.0568 36.1241 33.6908 35.8607 34.2177 35.3334C34.745 34.8062 35.0084 34.1725 35.0084 33.4322L35.009 28.0481H30.6012L30.6009 31.7163Z"
        fill="#FBBC04" />
</svg>