<svg width="1em" height="1em" viewBox="0 0 16 16" fill="none" xmlns="http://www.w3.org/2000/svg">
    <g clip-path="url(#clip0_70_1674)">
        <path
            d="M1.0997 5.34689C-0.36624 6.78439 -0.36624 9.18751 1.0997 10.6531L5.34689 14.9C6.78439 16.3656 9.18751 16.3656 10.6531 14.9L14.9 10.6531C16.3656 9.18751 16.3656 6.78439 14.9 5.34689L10.6531 1.0997C9.18751 -0.36624 6.78439 -0.36624 5.34689 1.0997L1.0997 5.34689ZM9.85938 9.85938C8.83126 10.8844 7.16876 10.8844 6.14376 9.85938C5.11563 8.83126 5.11563 7.16876 6.14376 6.14376C7.16876 5.11563 8.83126 5.11563 9.85938 6.14376C10.8844 7.16876 10.8844 8.83126 9.85938 9.85938Z"
            fill="currentColor" />
    </g>
    <defs>
        <clipPath id="clip0_70_1674">
            <rect width="16" height="16" fill="white" />
        </clipPath>
    </defs>
</svg>