<svg width="1em" height="1em" viewBox="0 0 16 16" fill="none" xmlns="http://www.w3.org/2000/svg">
    <g clip-path="url(#clip0_160_1782)">
        <path fill-rule="evenodd" clip-rule="evenodd"
            d="M11.8131 0.157506C13.4932 -0.388566 15.2977 0.530864 15.843 2.21045C16.3888 3.89032 15.4693 5.69453 13.7897 6.24053C12.1101 6.78632 10.3059 5.86696 9.75987 4.1871C9.21435 2.50744 10.1335 0.703023 11.8131 0.157506ZM0.157765 2.2106C0.703282 0.531008 2.50714 -0.388421 4.18763 0.157373C5.86722 0.70289 6.78638 2.50758 6.2403 4.18724C5.69479 5.86711 3.89031 6.78647 2.21099 6.24047C0.530569 5.69467 -0.38886 3.89047 0.157765 2.2106ZM5.78579 14.6813C4.74729 16.1102 2.74736 16.427 1.31873 15.3885C-0.110451 14.3505 -0.427185 12.3506 0.611037 10.9217C1.64905 9.49278 3.64891 9.17598 5.07782 10.214C6.50679 11.2522 6.8238 13.2524 5.78579 14.6813ZM10.2133 14.6815C9.17554 13.2526 9.49227 11.2524 10.9212 10.2141C12.3502 9.17584 14.3497 9.49292 15.388 10.9215C16.4265 12.3505 16.1095 14.3506 14.6806 15.3889C13.2517 16.4271 11.2518 16.1104 10.2133 14.6815Z"
            fill="currentColor" />
    </g>
    <defs>
        <clipPath id="clip0_160_1782">
            <rect width="16" height="16" fill="white" />
        </clipPath>
    </defs>
</svg>
