<svg width="13" height="12" viewBox="0 0 13 12" fill="none" xmlns="http://www.w3.org/2000/svg">
<path d="M6.44092 0C3.12753 0 0.440918 2.68661 0.440918 6C0.440918 9.31339 3.12753 12 6.44092 12C9.75431 12 12.4409 9.31339 12.4409 6C12.4409 2.68661 9.75431 0 6.44092 0ZM6.44092 9.48214C6.14494 9.48214 5.9052 9.24241 5.9052 8.94643C5.9052 8.65045 6.14494 8.41071 6.44092 8.41071C6.7369 8.41071 6.97663 8.65045 6.97663 8.94643C6.97663 9.24241 6.7369 9.48214 6.44092 9.48214ZM7.28333 6.54241C7.16204 6.58925 7.05768 6.67155 6.98386 6.77858C6.91004 6.8856 6.87018 7.01239 6.86949 7.14241V7.44643C6.86949 7.50536 6.82128 7.55357 6.76235 7.55357H6.11949C6.06056 7.55357 6.01235 7.50536 6.01235 7.44643V7.15848C6.01235 6.84911 6.10208 6.54375 6.27886 6.28929C6.45163 6.04018 6.6927 5.85 6.97663 5.74152C7.43199 5.56607 7.72663 5.18437 7.72663 4.76786C7.72663 4.17723 7.1494 3.69643 6.44092 3.69643C5.73244 3.69643 5.1552 4.17723 5.1552 4.76786V4.86964C5.1552 4.92857 5.10699 4.97679 5.04806 4.97679H4.4052C4.34628 4.97679 4.29806 4.92857 4.29806 4.86964V4.76786C4.29806 4.24152 4.52842 3.75 4.94628 3.38438C5.34806 3.03214 5.87842 2.83929 6.44092 2.83929C7.00342 2.83929 7.53377 3.03348 7.93556 3.38438C8.35342 3.75 8.58378 4.24152 8.58378 4.76786C8.58378 5.54196 8.07351 6.23839 7.28333 6.54241Z" fill="white"/>
</svg>
