<svg width="1em" height="1em" viewBox="0 0 16 16" fill="none" xmlns="http://www.w3.org/2000/svg">
    <path
        d="M12 7C13.6562 7 15 5.65625 15 4C15 2.34375 13.6562 1 12 1C10.3438 1 9 2.34375 9 4C9 4.125 9.00625 4.25 9.02188 4.37187L6.08125 5.84062C5.54375 5.31875 4.80938 5 4 5C2.34375 5 1 6.34375 1 8C1 9.65625 2.34375 11 4 11C4.80938 11 5.54375 10.6813 6.08125 10.1594L9.02188 11.6281C9.00625 11.75 9 11.8719 9 12C9 13.6562 10.3438 15 12 15C13.6562 15 15 13.6562 15 12C15 10.3438 13.6562 9 12 9C11.1906 9 10.4563 9.31875 9.91875 9.84062L6.97813 8.37187C6.99375 8.25 7 8.12813 7 8C7 7.87187 6.99375 7.75 6.97813 7.62813L9.91875 6.15938C10.4563 6.68125 11.1906 7 12 7Z"
        fill="currentColor" />
</svg>